<svg width="82" height="82" viewBox="0 0 82 82" fill="none" xmlns="http://www.w3.org/2000/svg">
<g clip-path="url(#clip0_323_937)">
<path d="M78.6259 58.3007C79.6165 55.1766 78.3329 52.6879 76.8526 50.5487C74.7541 47.6004 72.3171 44.8448 69.6835 42.4387C57.2611 31.6726 42.5847 27.2308 26.2947 28.247C22.1538 28.5202 17.9839 29.3905 13.3739 30.0891C14.4484 25.862 18.0076 22.8059 19.3552 18.5021C17.4085 18.5547 16.4806 19.796 15.6833 20.804C12.4294 24.9532 9.20082 29.193 6.08842 33.4991C4.61054 35.5811 4.75962 36.8158 6.85485 37.9978C11.1877 40.5183 15.8664 41.4694 20.775 40.7854C20.9572 40.7346 21.1536 40.3852 21.5066 39.8938C19.4119 36.2571 14.663 38.5656 11.9023 35.7041C17.7719 32.4934 24.0812 31.909 30.3615 31.9219C36.9399 31.9496 43.3981 32.6 49.6011 34.7944C55.6878 36.9231 61.0281 40.2422 66.2228 44.0928C71.483 47.827 75.4657 52.6053 78.6259 58.3007Z" fill="#0F0F0F"/>
</g>
<defs>
<clipPath id="clip0_323_937">
<rect width="66" height="66" fill="white" transform="matrix(-0.26906 -0.963124 -0.963124 0.26906 81.3241 63.5662)"/>
</clipPath>
</defs>
</svg>
