<svg width="174" height="26" viewBox="0 0 174 26" fill="none" xmlns="http://www.w3.org/2000/svg">
<rect x="174" y="26" width="26" height="26" rx="13" transform="rotate(-180 174 26)" fill="#1F1F1F"/>
<rect x="139" y="18" width="10" height="10" rx="5" transform="rotate(-180 139 18)" fill="#1F1F1F"/>
<rect x="120" y="18" width="9" height="10" rx="4.5" transform="rotate(-180 120 18)" fill="#1F1F1F"/>
<rect x="102" y="18" width="10" height="10" rx="5" transform="rotate(-180 102 18)" fill="#1F1F1F"/>
<rect x="83" y="18" width="9" height="10" rx="4.5" transform="rotate(-180 83 18)" fill="#1F1F1F"/>
<rect x="65" y="18" width="10" height="10" rx="5" transform="rotate(-180 65 18)" fill="#1F1F1F"/>
<rect x="46" y="18" width="9" height="10" rx="4.5" transform="rotate(-180 46 18)" fill="#1F1F1F"/>
<rect x="28" y="18" width="10" height="10" rx="5" transform="rotate(-180 28 18)" fill="#1F1F1F"/>
<rect x="9" y="18" width="9" height="10" rx="4.5" transform="rotate(-180 9 18)" fill="#1F1F1F"/>
</svg>
