<svg width="1231" height="49" viewBox="0 0 1231 49" fill="none" xmlns="http://www.w3.org/2000/svg">
<g clip-path="url(#clip0_323_969)">
<path d="M196.091 35.7181V17.2994H200.982V20.5779H201.216C201.605 19.4905 202.256 18.6338 203.168 18.0078C204.08 17.3818 205.166 17.0687 206.423 17.0687C207.703 17.0687 208.788 17.3873 209.678 18.0243C210.579 18.6503 211.18 19.5015 211.481 20.5779H211.681C212.059 19.5125 212.749 18.6613 213.751 18.0243C214.752 17.3873 215.931 17.0687 217.289 17.0687C219.024 17.0687 220.438 17.6124 221.529 18.6998C222.63 19.7871 223.181 21.3302 223.181 23.3291V35.7181H218.007V24.3506C218.007 23.3181 217.729 22.5493 217.172 22.0441C216.627 21.5389 215.942 21.2863 215.12 21.2863C214.184 21.2863 213.45 21.5828 212.916 22.1759C212.393 22.7581 212.132 23.5268 212.132 24.4824V35.7181H207.124V24.2188C207.124 23.3291 206.863 22.6207 206.34 22.0935C205.817 21.5554 205.133 21.2863 204.287 21.2863C203.708 21.2863 203.191 21.429 202.735 21.7147C202.278 22.0002 201.916 22.3956 201.649 22.9008C201.382 23.395 201.249 23.9881 201.249 24.6801V35.7181H196.091Z" fill="#494949"/>
<path d="M188.734 27.8927V17.2994H193.892V35.7181H188.934V32.3738H188.734C188.312 33.4392 187.616 34.3068 186.648 34.9768C185.68 35.6358 184.495 35.9598 183.093 35.9488C181.846 35.9488 180.745 35.6743 179.788 35.125C178.842 34.5649 178.102 33.7687 177.568 32.7362C177.045 31.7038 176.784 30.4682 176.784 29.0294V17.2994H181.941V28.1398C181.941 29.2161 182.235 30.0728 182.826 30.7099C183.416 31.3359 184.2 31.6434 185.179 31.6324C185.802 31.6324 186.381 31.4952 186.915 31.2206C187.449 30.935 187.883 30.5121 188.217 29.952C188.561 29.3919 188.734 28.7055 188.734 27.8927Z" fill="#494949"/>
<path d="M175.034 22.5548L170.31 22.8349C170.188 22.2528 169.86 21.7531 169.326 21.3357C168.792 20.9073 168.074 20.6932 167.173 20.6932C166.372 20.6932 165.699 20.858 165.153 21.1875C164.619 21.5169 164.352 21.9562 164.352 22.5054C164.352 22.9448 164.525 23.3236 164.869 23.6422C165.225 23.9497 165.832 24.1913 166.689 24.367L170.077 25.0261C171.891 25.3885 173.242 25.9761 174.133 26.7888C175.023 27.6015 175.468 28.6725 175.468 30.0014C175.468 31.2205 175.112 32.2859 174.4 33.1975C173.688 34.0981 172.709 34.8065 171.462 35.3227C170.216 35.8279 168.786 36.0806 167.173 36.0806C164.702 36.0806 162.733 35.5698 161.264 34.5484C159.806 33.527 158.955 32.1431 158.711 30.3968L163.768 30.1332C163.935 30.88 164.313 31.4457 164.902 31.8301C165.493 32.2145 166.249 32.4067 167.173 32.4067C168.074 32.4067 168.803 32.231 169.36 31.8795C169.926 31.5281 170.211 31.0832 170.211 30.545C170.211 29.6335 169.41 29.0184 167.807 28.6999L164.586 28.0409C162.772 27.6784 161.42 27.0579 160.529 26.1793C159.64 25.3006 159.194 24.1748 159.194 22.8019C159.194 21.6158 159.523 20.5944 160.179 19.7377C160.836 18.881 161.754 18.222 162.933 17.7607C164.124 17.2994 165.515 17.0687 167.106 17.0687C169.465 17.0687 171.318 17.563 172.664 18.5515C174.021 19.529 174.811 20.8634 175.034 22.5548Z" fill="#494949"/>
<path d="M139.97 42.6045V17.2994H145.044V20.4132H145.277C145.511 19.9079 145.845 19.3972 146.279 18.881C146.713 18.3648 147.28 17.9364 147.982 17.5959C148.683 17.2445 149.551 17.0687 150.586 17.0687C151.954 17.0687 153.206 17.4202 154.341 18.1231C155.487 18.815 156.405 19.8639 157.094 21.2699C157.785 22.6757 158.129 24.433 158.129 26.5417C158.129 28.5846 157.796 30.3144 157.128 31.7312C156.461 33.1371 155.554 34.2024 154.407 34.9274C153.273 35.6522 151.993 36.0146 150.568 36.0146C149.567 36.0146 148.716 35.8499 148.015 35.5204C147.314 35.1909 146.741 34.7791 146.296 34.2848C145.862 33.7796 145.522 33.2744 145.277 32.7692H145.127V42.6045H139.97ZM148.933 31.9619C149.778 31.9619 150.491 31.7312 151.069 31.27C151.648 30.8086 152.088 30.1716 152.388 29.3589C152.688 28.5351 152.838 27.5906 152.838 26.5252C152.838 25.4599 152.688 24.5263 152.388 23.7246C152.099 22.9117 151.664 22.2748 151.086 21.8135C150.507 21.3522 149.789 21.1216 148.933 21.1216C148.099 21.1216 147.387 21.3466 146.797 21.797C146.218 22.2364 145.773 22.8624 145.461 23.6751C145.161 24.4768 145.01 25.4269 145.01 26.5252C145.01 27.6126 145.167 28.5626 145.478 29.3754C145.789 30.1881 146.235 30.8251 146.813 31.2864C147.403 31.7367 148.11 31.9619 148.933 31.9619Z" fill="#494949"/>
<path d="M132.613 35.7181V17.2994H137.77V35.7181H132.613ZM135.183 14.9436C134.415 14.9436 133.758 14.6909 133.213 14.1857C132.668 13.6805 132.396 13.0709 132.396 12.357C132.396 11.6431 132.668 11.0391 133.213 10.5448C133.758 10.0396 134.415 9.78699 135.183 9.78699C135.962 9.78699 136.624 10.0396 137.169 10.5448C137.714 11.0391 137.987 11.6431 137.987 12.357C137.987 13.0709 137.714 13.6805 137.169 14.1857C136.624 14.6909 135.962 14.9436 135.183 14.9436Z" fill="#494949"/>
<path d="M122 36.0806C120.12 36.0806 118.49 35.6851 117.11 34.8943C115.741 34.0926 114.684 32.9833 113.938 31.5665C113.204 30.1387 112.838 28.4802 112.838 26.5912C112.838 24.6801 113.204 23.0162 113.938 21.5993C114.684 20.1715 115.741 19.0622 117.11 18.2714C118.49 17.4697 120.12 17.0687 122 17.0687C123.892 17.0687 125.522 17.4697 126.891 18.2714C128.271 19.0622 129.328 20.1715 130.062 21.5993C130.808 23.0162 131.181 24.6801 131.181 26.5912C131.181 28.4802 130.808 30.1387 130.062 31.5665C129.328 32.9833 128.271 34.0926 126.891 34.8943C125.522 35.6851 123.892 36.0806 122 36.0806ZM122.033 32.0937C122.891 32.0937 123.609 31.8575 124.187 31.3853C124.765 30.902 125.2 30.243 125.489 29.4083C125.789 28.5736 125.939 27.6236 125.939 26.5581C125.939 25.4818 125.789 24.5318 125.489 23.7081C125.2 22.8843 124.765 22.2364 124.187 21.764C123.609 21.2918 122.891 21.0556 122.033 21.0556C121.166 21.0556 120.437 21.2918 119.847 21.764C119.269 22.2364 118.829 22.8843 118.529 23.7081C118.239 24.5318 118.095 25.4818 118.095 26.5581C118.095 27.6236 118.239 28.5736 118.529 29.4083C118.829 30.243 119.269 30.902 119.847 31.3853C120.437 31.8575 121.166 32.0937 122.033 32.0937Z" fill="#494949"/>
<path d="M102.309 43C99.7933 43 97.824 42.5057 96.3995 41.5172C94.9751 40.5397 94.1074 39.3205 93.7956 37.8598L98.57 37.2338C98.7145 37.6072 98.9421 37.9532 99.2539 38.2717C99.5657 38.5902 99.9826 38.8428 100.506 39.0295C101.029 39.2272 101.669 39.326 102.426 39.326C103.549 39.326 104.478 39.057 105.212 38.5188C105.947 37.9916 106.314 37.0965 106.314 35.8334V32.4561H106.097C105.874 32.9613 105.535 33.4446 105.079 33.9059C104.623 34.3672 104.038 34.7406 103.326 35.0262C102.614 35.3117 101.763 35.4545 100.773 35.4545C99.3709 35.4545 98.0964 35.136 96.9508 34.499C95.8153 33.851 94.9028 32.8625 94.2135 31.5336C93.5341 30.2045 93.1949 28.5242 93.1949 26.4923C93.1949 24.3945 93.5396 22.6482 94.2299 21.2533C94.9312 19.8584 95.8546 18.815 97.0002 18.1231C98.1467 17.4202 99.4039 17.0687 100.773 17.0687C101.818 17.0687 102.693 17.2445 103.393 17.5959C104.105 17.9364 104.684 18.3648 105.129 18.881C105.574 19.3972 105.908 19.9079 106.13 20.4132H106.33V17.2994H111.421V35.9158C111.421 37.4754 111.032 38.7824 110.254 39.8368C109.475 40.8911 108.4 41.6819 107.032 42.2091C105.663 42.7363 104.089 43 102.309 43ZM102.408 31.616C103.654 31.616 104.617 31.1601 105.296 30.2485C105.986 29.3369 106.33 28.0739 106.33 26.4593C106.33 25.383 106.175 24.4494 105.863 23.6586C105.563 22.8569 105.124 22.2364 104.545 21.797C103.966 21.3466 103.254 21.1216 102.408 21.1216C101.562 21.1216 100.845 21.3522 100.255 21.8135C99.6763 22.2638 99.2375 22.8898 98.9367 23.6915C98.6368 24.4934 98.4859 25.4159 98.4859 26.4593C98.4859 27.5137 98.6368 28.4308 98.9367 29.2106C99.2375 29.9795 99.6763 30.5726 100.255 30.9898C100.845 31.4072 101.562 31.616 102.408 31.616Z" fill="#494949"/>
<path d="M83.3507 36.0806C81.4702 36.0806 79.84 35.6851 78.4603 34.8943C77.0916 34.0926 76.0345 32.9833 75.289 31.5665C74.5546 30.1387 74.1874 28.4802 74.1874 26.5912C74.1874 24.6801 74.5546 23.0162 75.289 21.5993C76.0345 20.1715 77.0916 19.0622 78.4603 18.2714C79.84 17.4697 81.4702 17.0687 83.3507 17.0687C85.2424 17.0687 86.8725 17.4697 88.2412 18.2714C89.621 19.0622 90.6781 20.1715 91.4125 21.5993C92.1581 23.0162 92.5311 24.6801 92.5311 26.5912C92.5311 28.4802 92.1581 30.1387 91.4125 31.5665C90.6781 32.9833 89.621 34.0926 88.2412 34.8943C86.8725 35.6851 85.2424 36.0806 83.3507 36.0806ZM83.3841 32.0937C84.241 32.0937 84.9587 31.8575 85.5372 31.3853C86.1159 30.902 86.5499 30.243 86.8392 29.4083C87.1396 28.5736 87.2898 27.6236 87.2898 26.5581C87.2898 25.4818 87.1396 24.5318 86.8392 23.7081C86.5499 22.8843 86.1159 22.2364 85.5372 21.764C84.9587 21.2918 84.241 21.0556 83.3841 21.0556C82.5162 21.0556 81.7874 21.2918 81.1976 21.764C80.619 22.2364 80.1794 22.8843 79.879 23.7081C79.5897 24.5318 79.4451 25.4818 79.4451 26.5581C79.4451 27.6236 79.5897 28.5736 79.879 29.4083C80.1794 30.243 80.619 30.902 81.1976 31.3853C81.7874 31.8575 82.5162 32.0937 83.3841 32.0937Z" fill="#494949"/>
<path d="M57.6 35.7182V11.1709H62.8409V31.4347H73.5064V35.7182H57.6Z" fill="#494949"/>
<path d="M34.1894 42.0976C40.0709 41.9793 44.8 37.231 44.8 31.3936C44.8 28.5547 43.6582 25.8322 41.6258 23.8248L23.579 6V17.0793C23.579 18.9322 24.3242 20.7093 25.6508 22.0196L29.8784 26.1951L29.8899 26.2062L36.9785 33.2076C37.2087 33.435 37.2087 33.8036 36.9785 34.0309C36.7483 34.2583 36.375 34.2583 36.1449 34.0309L33.7015 31.6176H11.0985L8.65513 34.0309C8.42492 34.2583 8.05169 34.2583 7.8215 34.0309C7.59129 33.8036 7.59129 33.435 7.82149 33.2076L14.9101 26.2062L14.9216 26.1951L19.1492 22.0196C20.4758 20.7093 21.221 18.9322 21.221 17.0793V6L3.17417 23.8248C1.14178 25.8322 0 28.5547 0 31.3936C0 37.231 4.72916 41.9793 10.6106 42.0976H34.1894Z" fill="#FF0A0A"/>
</g>
<g clip-path="url(#clip1_323_969)">
<path fill-rule="evenodd" clip-rule="evenodd" d="M304.496 10.4556C302.818 10.4556 301.157 10.7861 299.607 11.4281C298.058 12.0702 296.649 13.0113 295.463 14.1977C294.277 15.3841 293.336 16.7926 292.694 18.3427C292.124 19.7213 291.799 21.1879 291.734 22.6759C291.719 23.0164 291.53 23.3282 291.226 23.4803L287.109 25.5391C286.805 25.6912 286.61 26.0029 286.625 26.3435C286.69 27.8314 287.014 29.298 287.585 30.6767C288.227 32.2268 289.168 33.6352 290.354 34.8216C291.54 36.008 292.948 36.9491 294.498 37.5912C296.048 38.2333 297.709 38.5638 299.386 38.5638C301.064 38.5638 302.725 38.2333 304.274 37.5912C305.824 36.9491 307.232 36.008 308.418 34.8216C309.605 33.6352 310.545 32.2268 311.187 30.6767C311.758 29.298 312.083 27.8314 312.148 26.3435C312.162 26.0029 312.352 25.6912 312.656 25.5391L316.773 23.4803C317.077 23.3282 317.272 23.0164 317.257 22.6759C317.192 21.1879 316.868 19.7213 316.297 18.3427C315.655 16.7926 314.714 15.3841 313.528 14.1977C312.342 13.0113 310.934 12.0702 309.384 11.4281C307.834 10.7861 306.173 10.4556 304.496 10.4556ZM310.396 20.7874C310.646 21.3907 310.802 22.0279 310.858 22.6764C310.888 23.016 310.69 23.3282 310.386 23.4803L306.269 25.5391C305.965 25.6912 305.778 26.0034 305.749 26.3429C305.692 26.9914 305.537 27.6286 305.287 28.232C304.966 29.007 304.495 29.7113 303.902 30.3045C303.309 30.8976 302.605 31.3682 301.83 31.6892C301.055 32.0103 300.225 32.1755 299.386 32.1755C298.548 32.1755 297.717 32.0103 296.942 31.6892C296.167 31.3682 295.463 30.8976 294.87 30.3045C294.277 29.7113 293.807 29.007 293.486 28.232C293.236 27.6286 293.08 26.9914 293.024 26.3429C292.994 26.0034 293.192 25.6912 293.496 25.5391L297.612 23.4803C297.917 23.3282 298.103 23.016 298.133 22.6764C298.19 22.0279 298.345 21.3907 298.595 20.7874C298.916 20.0123 299.386 19.3081 299.979 18.7149C300.573 18.1217 301.277 17.6511 302.052 17.3301C302.826 17.009 303.657 16.8438 304.496 16.8438C305.334 16.8438 306.165 17.009 306.94 17.3301C307.715 17.6511 308.419 18.1217 309.012 18.7149C309.605 19.3081 310.075 20.0123 310.396 20.7874Z" fill="#E22935"/>
<path fill-rule="evenodd" clip-rule="evenodd" d="M304.496 0.234497C301.476 0.234497 298.486 0.829345 295.697 1.98508C292.907 3.14082 290.373 4.83483 288.238 6.97033C286.103 9.10588 284.409 11.6411 283.254 14.4313C282.169 17.05 281.579 19.8453 281.51 22.6758C281.502 23.0166 281.311 23.3282 281.007 23.4803L276.89 25.5391C276.586 25.6913 276.392 26.0029 276.401 26.3437C276.469 29.1742 277.06 31.9694 278.144 34.5882C279.3 37.3784 280.993 39.9136 283.128 42.0491C285.263 44.1846 287.798 45.8788 290.587 47.0342C293.377 48.1899 296.367 48.7851 299.386 48.7851C302.406 48.7851 305.395 48.1899 308.185 47.0342C310.975 45.8788 313.509 44.1846 315.644 42.0491C317.779 39.9136 319.473 37.3784 320.628 34.5882C321.713 31.9694 322.303 29.1742 322.372 26.3437C322.38 26.0029 322.571 25.6913 322.875 25.5391L326.991 23.4803C327.296 23.3282 327.489 23.0166 327.481 22.6758C327.413 19.8453 326.822 17.05 325.738 14.4313C324.582 11.6411 322.889 9.10588 320.754 6.97033C318.619 4.83483 316.084 3.14082 313.294 1.98508C310.505 0.82935 307.515 0.234497 304.496 0.234497ZM315.982 26.3436C315.994 26.0029 316.184 25.6913 316.488 25.5391L320.605 23.4803C320.909 23.3282 321.103 23.0165 321.092 22.6758C321.025 20.6844 320.601 18.7196 319.837 16.876C319.003 14.8608 317.779 13.0298 316.237 11.4875C314.696 9.94517 312.865 8.72174 310.85 7.88703C308.836 7.05233 306.676 6.6227 304.496 6.6227C302.315 6.6227 300.156 7.05233 298.141 7.88703C296.126 8.72174 294.296 9.94517 292.754 11.4875C291.212 13.0298 289.989 14.8608 289.154 16.876C288.391 18.7196 287.966 20.6844 287.899 22.6758C287.888 23.0165 287.698 23.3282 287.394 23.4803L283.277 25.5391C282.973 25.6913 282.779 26.0029 282.79 26.3436C282.857 28.3351 283.281 30.2998 284.045 32.1435C284.879 34.1586 286.102 35.9897 287.644 37.5319C289.186 39.0743 291.017 40.2977 293.032 41.1324C295.046 41.9671 297.206 42.3967 299.386 42.3967C301.567 42.3967 303.726 41.9671 305.741 41.1324C307.756 40.2977 309.586 39.0743 311.128 37.5319C312.67 35.9897 313.893 34.1586 314.728 32.1435C315.491 30.2998 315.916 28.3351 315.982 26.3436Z" fill="#E22935"/>
<path d="M395.552 7.79944C394.871 7.79944 394.296 7.56343 393.825 7.09141C393.354 6.61939 393.119 6.04623 393.119 5.37191C393.119 4.68074 393.354 4.10338 393.825 3.63979C394.296 3.16777 394.871 2.93176 395.552 2.93176C396.233 2.93176 396.804 3.16777 397.266 3.63979C397.737 4.10338 397.972 4.68074 397.972 5.37191C397.972 6.04623 397.737 6.61939 397.266 7.09141C396.804 7.56343 396.233 7.79944 395.552 7.79944Z" fill="#381B1B"/>
<path d="M393.548 22.9587V9.35449H397.531V22.9587H393.548Z" fill="#381B1B"/>
<path fill-rule="evenodd" clip-rule="evenodd" d="M399.778 26.9616V9.35451H403.56V10.7074H403.609C403.847 10.4719 404.104 10.257 404.379 10.0625C405.27 9.4388 406.295 9.12695 407.455 9.12695C408.472 9.12695 409.442 9.39245 410.367 9.92345C411.3 10.4545 412.056 11.2426 412.636 12.2878C413.216 13.333 413.497 14.6352 413.48 16.1946C413.489 17.3746 413.325 18.4029 412.989 19.2795C412.653 20.1477 412.199 20.8684 411.627 21.4416C411.056 22.0147 410.417 22.4446 409.711 22.7312C409.005 23.0178 408.291 23.161 407.568 23.161C406.425 23.161 405.4 22.8407 404.492 22.2002C404.264 22.0368 404.048 21.8598 403.843 21.6692H403.761V24.6786L399.778 26.9616ZM406.636 19.8232C407.224 19.8148 407.74 19.6588 408.186 19.3554C408.631 19.052 408.98 18.6221 409.232 18.0658C409.484 17.5095 409.606 16.8605 409.598 16.1187C409.606 15.3601 409.48 14.7111 409.22 14.1716C408.968 13.6238 408.61 13.2065 408.148 12.92C407.686 12.6249 407.156 12.4817 406.56 12.4901C405.997 12.4817 405.493 12.6207 405.047 12.9073C404.602 13.1939 404.249 13.6111 403.988 14.159C403.728 14.6984 403.598 15.3517 403.598 16.1187C403.598 16.8605 403.728 17.5095 403.988 18.0658C404.257 18.6221 404.619 19.052 405.072 19.3554C405.526 19.6588 406.047 19.8148 406.636 19.8232Z" fill="#381B1B"/>
<path d="M419.635 23.1611C418.828 23.1611 418.055 23.022 417.316 22.7438C416.585 22.4657 415.937 22.0737 415.374 21.568C414.811 21.0538 414.387 20.4554 414.102 19.7726L417.228 18.3945C417.437 18.7907 417.753 19.1658 418.173 19.5198C418.593 19.8738 419.089 20.0508 419.66 20.0508C419.963 20.0508 420.227 20.0002 420.455 19.899C420.681 19.7895 420.858 19.6504 420.984 19.4818C421.118 19.3132 421.186 19.132 421.186 18.9382C421.186 18.6937 421.089 18.483 420.896 18.306C420.703 18.129 420.455 17.9773 420.152 17.8508C419.85 17.7244 419.53 17.6148 419.194 17.5221C418.866 17.4294 418.564 17.3451 418.286 17.2692C417.648 17.0754 417.043 16.8098 416.471 16.4727C415.908 16.1271 415.45 15.6888 415.097 15.1578C414.744 14.6268 414.568 13.982 414.568 13.2234C414.568 12.4226 414.774 11.7188 415.185 11.1119C415.606 10.4966 416.173 10.0161 416.887 9.67059C417.61 9.32498 418.433 9.15222 419.358 9.15222C420.509 9.15222 421.543 9.41772 422.459 9.94872C423.383 10.4798 424.038 11.1836 424.425 12.0602L421.362 13.3877C421.202 13.118 420.967 12.8567 420.656 12.6038C420.354 12.351 419.967 12.2245 419.496 12.2245C419.102 12.2245 418.774 12.3257 418.513 12.528C418.253 12.7303 418.122 12.9831 418.122 13.2866C418.122 13.59 418.253 13.8345 418.513 14.0199C418.774 14.2053 419.106 14.3655 419.509 14.5003C419.912 14.6352 420.333 14.7659 420.77 14.8923C421.106 14.985 421.497 15.1199 421.942 15.2969C422.387 15.4654 422.82 15.6972 423.24 15.9923C423.669 16.2873 424.022 16.6666 424.299 17.1301C424.585 17.5938 424.728 18.1627 424.728 18.837C424.728 19.6883 424.492 20.4427 424.022 21.1002C423.56 21.7492 422.942 22.2549 422.169 22.6174C421.404 22.9798 420.56 23.1611 419.635 23.1611Z" fill="#381B1B"/>
<path d="M440.92 22.9588V9.35451H444.715V11.0866H444.784C445.08 10.6728 445.414 10.323 445.786 10.0372C446.542 9.44721 447.437 9.15222 448.471 9.15222C449.328 9.15222 450.055 9.36292 450.652 9.78437C451.112 10.0986 451.487 10.52 451.777 11.0487H451.848C452.278 10.4996 452.8 10.0697 453.412 9.7591C454.21 9.35452 455.08 9.15222 456.022 9.15222C456.921 9.15222 457.66 9.31235 458.24 9.63265C458.82 9.94454 459.274 10.3575 459.601 10.8717C459.929 11.3775 460.16 11.9338 460.295 12.5406C460.429 13.1391 460.496 13.7207 460.496 14.2854V22.9588H456.488V14.7785C456.488 14.0368 456.333 13.4678 456.022 13.0716C455.719 12.6671 455.274 12.4648 454.686 12.4648C454.299 12.4648 453.954 12.5533 453.652 12.7303C453.358 12.8988 453.122 13.1559 452.946 13.5015C452.778 13.8471 452.694 14.2728 452.694 14.7785V22.9588H448.71V14.7785C448.71 14.0368 448.555 13.4678 448.244 13.0716C447.933 12.6671 447.483 12.4648 446.895 12.4648C446.324 12.4648 445.849 12.6628 445.471 13.059C445.093 13.4467 444.904 14.0283 444.904 14.8038V22.9588H440.92Z" fill="#381B1B"/>
<path d="M428.626 22.5668C429.391 22.963 430.24 23.161 431.173 23.161C432.274 23.161 433.248 22.8913 434.097 22.3519C434.527 22.0746 434.917 21.7585 435.269 21.4036H435.371C435.491 21.6802 435.667 21.9246 435.9 22.1369C436.362 22.5584 437.093 22.8997 438.093 23.161L439.505 19.8232C439.068 19.663 438.778 19.4734 438.635 19.2542C438.492 19.0351 438.421 18.6811 438.421 18.1922V9.35449H434.437V17.3704C434.437 17.8677 434.341 18.2975 434.147 18.66C433.963 19.014 433.702 19.288 433.366 19.4818C433.038 19.6757 432.656 19.7726 432.219 19.7726C431.631 19.7726 431.131 19.5703 430.719 19.1657C430.315 18.7527 430.114 18.1543 430.114 17.3704V9.35449H426.131V17.9014C426.131 19.0477 426.353 20.0128 426.798 20.7967C427.252 21.5722 427.862 22.1622 428.626 22.5668Z" fill="#381B1B"/>
<path fill-rule="evenodd" clip-rule="evenodd" d="M384.922 23.1611C383.619 23.1611 382.43 22.8618 381.354 22.2634C380.287 21.6649 379.434 20.8389 378.796 19.7853C378.165 18.7316 377.85 17.5179 377.85 16.144C377.85 14.77 378.165 13.5563 378.796 12.5027C379.434 11.4491 380.287 10.6273 381.354 10.0372C382.43 9.44721 383.619 9.15222 384.922 9.15222C386.249 9.15222 387.447 9.44721 388.514 10.0372C389.582 10.6273 390.426 11.4491 391.048 12.5027C391.678 13.5563 391.994 14.77 391.994 16.144C391.994 17.5179 391.678 18.7316 391.048 19.7853C390.426 20.8389 389.577 21.6649 388.502 22.2634C387.434 22.8618 386.241 23.1611 384.922 23.1611ZM384.922 19.7473C385.544 19.7473 386.102 19.5956 386.598 19.2922C387.094 18.9887 387.485 18.5673 387.771 18.0278C388.056 17.4884 388.199 16.8604 388.199 16.144C388.199 15.4528 388.061 14.8375 387.783 14.298C387.506 13.7586 387.123 13.3371 386.636 13.0337C386.149 12.7218 385.586 12.5659 384.947 12.5659C384.317 12.5659 383.749 12.7176 383.245 13.0211C382.75 13.3161 382.359 13.7333 382.073 14.2728C381.787 14.8122 381.644 15.436 381.644 16.144C381.644 16.8604 381.787 17.4884 382.073 18.0278C382.367 18.5673 382.762 18.9887 383.258 19.2922C383.753 19.5956 384.308 19.7473 384.922 19.7473Z" fill="#381B1B"/>
<path fill-rule="evenodd" clip-rule="evenodd" d="M369.162 28.4713C368.036 28.4713 367.002 28.3322 366.061 28.0541C365.128 27.7844 364.393 27.5062 363.855 27.2196L365.166 24.0841C365.636 24.3706 366.183 24.6151 366.804 24.8174C367.435 25.0281 368.073 25.1335 368.72 25.1335C369.275 25.1335 369.851 25.0408 370.447 24.8553C371.044 24.6699 371.553 24.3749 371.973 23.9703C372.393 23.5742 372.603 23.0516 372.603 22.4025V21.0876H372.543C372.296 21.3317 372.03 21.555 371.746 21.7577C370.847 22.3899 369.821 22.706 368.67 22.706C367.956 22.706 367.246 22.5711 366.54 22.3014C365.834 22.0232 365.191 21.606 364.611 21.0497C364.039 20.4849 363.582 19.7811 363.237 18.9383C362.893 18.0954 362.72 17.1049 362.72 15.9671C362.72 14.4499 363.014 13.1897 363.603 12.1867C364.199 11.1752 364.964 10.4166 365.897 9.91088C366.829 9.39674 367.8 9.13965 368.809 9.13965C369.977 9.13965 370.998 9.43886 371.872 10.0373C372.152 10.2276 372.413 10.4383 372.654 10.6695H372.729V9.34194H376.347V22.175C376.347 23.2117 376.17 24.122 375.818 24.9059C375.464 25.6898 374.964 26.3472 374.317 26.8783C373.679 27.4093 372.922 27.8055 372.048 28.0667C371.174 28.3365 370.212 28.4713 369.162 28.4713ZM369.653 19.4566C370.258 19.4566 370.792 19.3049 371.254 19.0015C371.717 18.698 372.082 18.2766 372.351 17.7371C372.62 17.1892 372.754 16.5571 372.754 15.8406C372.754 15.1157 372.624 14.4962 372.363 13.9821C372.103 13.4595 371.746 13.0591 371.292 12.7809C370.838 12.5028 370.313 12.3637 369.716 12.3637C369.12 12.3637 368.586 12.507 368.115 12.7936C367.645 13.0717 367.275 13.4721 367.006 13.9947C366.746 14.5173 366.615 15.1326 366.615 15.8406C366.615 16.5486 366.746 17.1766 367.006 17.7245C367.266 18.2639 367.624 18.6896 368.078 19.0015C368.531 19.3049 369.057 19.4566 369.653 19.4566Z" fill="#381B1B"/>
<path fill-rule="evenodd" clip-rule="evenodd" d="M354.637 23.1611C353.334 23.1611 352.145 22.8618 351.069 22.2634C350.002 21.6649 349.149 20.8389 348.51 19.7853C347.88 18.7316 347.565 17.5179 347.565 16.144C347.565 14.77 347.88 13.5563 348.51 12.5027C349.149 11.4491 350.002 10.6273 351.069 10.0372C352.145 9.44721 353.334 9.15222 354.637 9.15222C355.964 9.15222 357.162 9.44721 358.229 10.0372C359.297 10.6273 360.141 11.4491 360.763 12.5027C361.393 13.5563 361.708 14.77 361.708 16.144C361.708 17.5179 361.393 18.7316 360.763 19.7853C360.141 20.8389 359.292 21.6649 358.216 22.2634C357.149 22.8618 355.956 23.1611 354.637 23.1611ZM354.637 19.7473C355.258 19.7473 355.817 19.5956 356.313 19.2922C356.809 18.9887 357.2 18.5673 357.485 18.0278C357.771 17.4884 357.914 16.8604 357.914 16.144C357.914 15.4528 357.775 14.8375 357.498 14.298C357.221 13.7586 356.838 13.3371 356.351 13.0337C355.863 12.7218 355.301 12.5659 354.662 12.5659C354.032 12.5659 353.464 12.7176 352.96 13.0211C352.464 13.3161 352.074 13.7333 351.788 14.2728C351.502 14.8122 351.359 15.436 351.359 16.144C351.359 16.8604 351.502 17.4884 351.788 18.0278C352.082 18.5673 352.477 18.9887 352.973 19.2922C353.468 19.5956 354.023 19.7473 354.637 19.7473Z" fill="#381B1B"/>
<path d="M336.796 22.9588V4.32251H340.931V19.2669H347.624V22.9588H336.796Z" fill="#381B1B"/>
<path fill-rule="evenodd" clip-rule="evenodd" d="M399.784 29.6558V33.3938H399.67C399.506 33.2503 399.334 33.1154 399.153 32.9892C398.271 32.3655 397.254 32.0536 396.103 32.0536C395.086 32.0536 394.111 32.3191 393.178 32.8501C392.246 33.3811 391.489 34.1692 390.91 35.2144C390.33 36.2596 390.052 37.5619 390.077 39.1212C390.061 40.3012 390.22 41.3296 390.556 42.2062C390.893 43.0744 391.347 43.795 391.918 44.3682C392.489 44.9414 393.128 45.3713 393.834 45.6577C394.54 45.9445 395.254 46.0879 395.977 46.0879C397.12 46.0879 398.145 45.7674 399.052 45.1268C399.507 44.8015 399.915 44.4222 400.275 43.9889H400.399C400.493 44.2331 400.637 44.4649 400.83 44.6843C401.09 44.9622 401.435 45.2194 401.863 45.4554C402.3 45.6833 402.83 45.8937 403.452 46.0879L404.851 42.7499C404.464 42.6066 404.187 42.4338 404.019 42.2315C403.851 42.0292 403.767 41.6794 403.767 41.1821V27.3728L399.784 29.6558ZM398.473 42.2821C398.019 42.5855 397.498 42.7415 396.909 42.7499C396.33 42.7415 395.813 42.5855 395.359 42.2821C394.905 41.9786 394.552 41.5487 394.3 40.9924C394.057 40.4361 393.939 39.7871 393.947 39.0454C393.939 38.2868 394.065 37.6377 394.326 37.0983C394.586 36.5504 394.943 36.1332 395.397 35.8466C395.859 35.5516 396.389 35.4083 396.985 35.4167C397.548 35.4083 398.052 35.5474 398.498 35.8339C398.943 36.1205 399.296 36.5378 399.557 37.0856C399.817 37.6251 399.952 38.2783 399.96 39.0454C399.952 39.7871 399.817 40.4361 399.557 40.9924C399.296 41.5487 398.935 41.9786 398.473 42.2821Z" fill="#B4ABAB"/>
<path d="M449.232 45.8856V32.2811H453.09V34.0639H453.15C453.257 33.9028 453.375 33.7511 453.505 33.6087C453.976 33.103 454.539 32.7237 455.195 32.4708C455.85 32.2095 456.552 32.0789 457.299 32.0789C458.207 32.0789 458.989 32.2896 459.644 32.711C460.3 33.1324 460.804 33.7098 461.157 34.4432C461.51 35.1765 461.686 36.0236 461.686 36.9845V45.8856H457.703V37.8569C457.703 37.0393 457.51 36.4282 457.123 36.0236C456.736 35.6105 456.211 35.4041 455.547 35.4041C455.11 35.4041 454.716 35.501 454.362 35.6948C454.01 35.8803 453.728 36.1584 453.518 36.5293C453.316 36.8917 453.215 37.3469 453.215 37.8948V45.8856H449.232Z" fill="#B4ABAB"/>
<path fill-rule="evenodd" clip-rule="evenodd" d="M441.044 46.0879C439.741 46.0879 438.552 45.7885 437.477 45.1901C436.409 44.5916 435.557 43.7655 434.918 42.7119C434.288 41.6583 433.972 40.4446 433.972 39.0706C433.972 37.6967 434.288 36.483 434.918 35.4293C435.557 34.3757 436.409 33.5539 437.477 32.9639C438.552 32.3738 439.741 32.0789 441.044 32.0789C442.372 32.0789 443.569 32.3738 444.636 32.9639C445.704 33.5539 446.548 34.3757 447.17 35.4293C447.801 36.483 448.116 37.6967 448.116 39.0706C448.116 40.4446 447.801 41.6583 447.17 42.7119C446.548 43.7655 445.7 44.5916 444.624 45.1901C443.557 45.7885 442.363 46.0879 441.044 46.0879ZM441.044 42.674C441.666 42.674 442.225 42.5222 442.72 42.2188C443.216 41.9154 443.607 41.4939 443.893 40.9545C444.178 40.415 444.321 39.7871 444.321 39.0706C444.321 38.3794 444.183 37.7642 443.905 37.2247C443.628 36.6853 443.246 36.2638 442.759 35.9604C442.271 35.6485 441.708 35.4925 441.069 35.4925C440.439 35.4925 439.872 35.6443 439.368 35.9477C438.872 36.2427 438.481 36.66 438.195 37.1994C437.91 37.7389 437.767 38.3626 437.767 39.0706C437.767 39.7871 437.91 40.415 438.195 40.9545C438.49 41.4939 438.884 41.9154 439.38 42.2188C439.876 42.5222 440.431 42.674 441.044 42.674Z" fill="#B4ABAB"/>
<path d="M428.823 45.8856V32.2811H432.806V45.8856H428.823Z" fill="#B4ABAB"/>
<path d="M429.099 30.0179C429.57 30.4899 430.146 30.726 430.827 30.726C431.507 30.726 432.079 30.4899 432.541 30.0179C433.012 29.5459 433.247 28.9727 433.247 28.2984C433.247 27.6073 433.012 27.0299 432.541 26.5663C432.079 26.0943 431.507 25.8583 430.827 25.8583C430.146 25.8583 429.57 26.0943 429.099 26.5663C428.629 27.0299 428.394 27.6073 428.394 28.2984C428.394 28.9727 428.629 29.5459 429.099 30.0179Z" fill="#B4ABAB"/>
<path d="M421.504 44.6969C422.319 45.6239 423.563 46.0879 425.235 46.0879C425.748 46.0879 426.252 46.0411 426.748 45.9485C427.252 45.8559 427.694 45.717 428.072 45.5313L426.786 42.3832C426.643 42.459 426.479 42.5222 426.294 42.5728C426.109 42.6234 425.921 42.6487 425.727 42.6487C425.316 42.6487 424.966 42.5222 424.681 42.2694C424.403 42.0081 424.265 41.5867 424.265 41.005V35.5937H427.404V32.2812H424.265V28.3617H420.281V32.2812H418.013V35.5937H420.281V41.1062C420.281 42.5644 420.689 43.7613 421.504 44.6969Z" fill="#B4ABAB"/>
<path fill-rule="evenodd" clip-rule="evenodd" d="M407.593 45.5313C408.291 45.9022 409.098 46.0879 410.014 46.0879C411.072 46.0879 412.005 45.877 412.812 45.4554C413.464 45.1182 413.942 44.7432 414.244 44.3302H414.306C414.423 44.5325 414.581 44.7348 414.778 44.9371C415.173 45.3416 415.762 45.6747 416.543 45.9359L417.01 46.0879L418.409 42.7498L418.106 42.6487C417.812 42.556 417.606 42.3916 417.489 42.1556C417.379 41.9112 417.325 41.5572 417.325 41.0936V36.9971C417.325 36.5082 417.266 35.9814 417.148 35.4167C417.039 34.8435 416.804 34.3083 416.443 33.811C416.081 33.3052 415.526 32.8923 414.778 32.572C414.03 32.2432 413.022 32.0789 411.753 32.0789C410.938 32.0789 410.173 32.1463 409.459 32.2811C408.753 32.4076 408.123 32.5677 407.568 32.7616C407.022 32.9555 406.581 33.1493 406.244 33.3432L407.568 36.3523C407.879 36.15 408.249 35.973 408.678 35.8213C409.106 35.6611 409.552 35.5389 410.014 35.4546C410.476 35.3619 410.909 35.3156 411.312 35.3156C411.665 35.3156 411.98 35.3577 412.257 35.442C412.535 35.5178 412.77 35.6316 412.963 35.7833C413.156 35.9351 413.299 36.1205 413.392 36.3397C413.493 36.5504 413.543 36.7864 413.543 37.0477V37.7304H410.984C409.808 37.7304 408.799 37.9117 407.959 38.2741C407.127 38.6365 406.488 39.1338 406.043 39.766C405.606 40.3982 405.387 41.123 405.387 41.9407C405.387 42.7161 405.581 43.4157 405.967 44.0394C406.362 44.6632 406.904 45.1605 407.593 45.5313ZM411.463 40.2338H413.732V41.0809C413.732 41.5782 413.572 41.9744 413.253 42.2694C412.942 42.5644 412.572 42.7751 412.144 42.9016C411.715 43.028 411.341 43.0912 411.022 43.0912C410.677 43.0912 410.366 43.0364 410.089 42.9268C409.821 42.8088 409.61 42.6487 409.459 42.4464C409.308 42.2357 409.232 41.9828 409.232 41.6878C409.232 41.1905 409.421 40.8238 409.799 40.5878C410.186 40.3518 410.741 40.2338 411.463 40.2338Z" fill="#B4ABAB"/>
<path d="M376.708 45.8856V32.2811H380.566V34.0639H380.627C380.733 33.9028 380.852 33.7511 380.982 33.6087C381.453 33.103 382.016 32.7237 382.671 32.4708C383.327 32.2095 384.028 32.0789 384.776 32.0789C385.684 32.0789 386.465 32.2896 387.12 32.711C387.776 33.1324 388.28 33.7098 388.633 34.4432C388.986 35.1765 389.163 36.0236 389.163 36.9845V45.8856H385.179V37.8569C385.179 37.0393 384.986 36.4282 384.599 36.0236C384.213 35.6105 383.688 35.4041 383.024 35.4041C382.587 35.4041 382.192 35.501 381.839 35.6948C381.486 35.8803 381.204 36.1584 380.995 36.5293C380.793 36.8917 380.692 37.3469 380.692 37.8948V45.8856H376.708Z" fill="#B4ABAB"/>
<path d="M367.336 46.0878C366.403 46.0878 365.554 45.8896 364.789 45.4936C364.025 45.089 363.416 44.4988 362.962 43.7233C362.516 42.9395 362.294 41.9744 362.294 40.828V32.2811H366.277V40.297C366.277 41.0809 366.478 41.6793 366.882 42.0924C367.294 42.497 367.793 42.6992 368.382 42.6992C368.819 42.6992 369.201 42.6023 369.529 42.4084C369.865 42.2146 370.126 41.9406 370.311 41.5866C370.504 41.2242 370.601 40.7943 370.601 40.297V32.2811H374.584V41.1188C374.584 41.6077 374.655 41.9617 374.798 42.1809C374.941 42.4 375.231 42.5897 375.668 42.7498L374.256 46.0878C373.256 45.8262 372.525 45.485 372.063 45.0633C371.83 44.8512 371.653 44.6068 371.534 44.3302H371.432C371.081 44.6852 370.69 45.0013 370.26 45.2787C369.411 45.8181 368.437 46.0878 367.336 46.0878Z" fill="#B4ABAB"/>
<path fill-rule="evenodd" clip-rule="evenodd" d="M354.194 46.0879C352.891 46.0879 351.702 45.7885 350.626 45.1901C349.559 44.5916 348.706 43.7655 348.068 42.7119C347.437 41.6583 347.122 40.4446 347.122 39.0706C347.122 37.6967 347.437 36.483 348.068 35.4293C348.706 34.3757 349.559 33.5539 350.626 32.9639C351.702 32.3738 352.891 32.0789 354.194 32.0789C355.521 32.0789 356.719 32.3738 357.786 32.9639C358.853 33.5539 359.698 34.3757 360.32 35.4293C360.95 36.483 361.265 37.6967 361.265 39.0706C361.265 40.4446 360.95 41.6583 360.32 42.7119C359.698 43.7655 358.849 44.5916 357.774 45.1901C356.706 45.7885 355.513 46.0879 354.194 46.0879ZM354.194 42.674C354.815 42.674 355.374 42.5222 355.87 42.2188C356.366 41.9154 356.757 41.4939 357.043 40.9545C357.328 40.415 357.471 39.7871 357.471 39.0706C357.471 38.3794 357.333 37.7642 357.055 37.2247C356.778 36.6853 356.395 36.2638 355.908 35.9604C355.421 35.6485 354.858 35.4925 354.219 35.4925C353.589 35.4925 353.021 35.6443 352.517 35.9477C352.021 36.2427 351.631 36.66 351.345 37.1994C351.059 37.7389 350.916 38.3626 350.916 39.0706C350.916 39.7871 351.059 40.415 351.345 40.9545C351.639 41.4939 352.034 41.9154 352.53 42.2188C353.025 42.5222 353.58 42.674 354.194 42.674Z" fill="#B4ABAB"/>
<path d="M336.766 45.8856V27.2491H347.594V30.941H340.9V35.2271H346.472V38.9189H340.9V45.8856H336.766Z" fill="#B4ABAB"/>
<path d="M327.481 22.7115H321.092C321.09 23.0382 320.898 23.3335 320.605 23.4804L316.488 25.5391C316.195 25.6859 316.007 25.9812 315.984 26.3079H322.373C322.394 25.9812 322.582 25.6859 322.875 25.5391L326.992 23.4804C327.285 23.3336 327.476 23.0383 327.481 22.7115Z" fill="#FF6670"/>
<path d="M276.401 26.3079H282.79C282.792 25.9812 282.984 25.6859 283.277 25.5391L287.394 23.4804C287.687 23.3335 287.875 23.0382 287.898 22.7115H281.509C281.488 23.0383 281.301 23.3336 281.007 23.4804L276.89 25.5391C276.597 25.6859 276.406 25.9812 276.401 26.3079Z" fill="#FF6670"/>
<path d="M291.732 22.7115C291.706 23.0381 291.519 23.3335 291.226 23.4804L287.109 25.5391C286.816 25.6859 286.624 25.9813 286.624 26.3079H293.021C293.008 25.982 293.202 25.686 293.496 25.5391L297.612 23.4804C297.906 23.3335 298.09 23.0374 298.129 22.7115H291.732Z" fill="#FF6670"/>
<path d="M310.86 22.7115C310.874 23.0374 310.68 23.3335 310.386 23.4804L306.269 25.5391C305.976 25.686 305.791 25.982 305.752 26.3079H312.15C312.176 25.9813 312.363 25.6859 312.656 25.5391L316.773 23.4804C317.066 23.3335 317.258 23.0381 317.258 22.7115H310.86Z" fill="#FF6670"/>
</g>
<g clip-path="url(#clip2_323_969)">
<path d="M549.737 35.6C555.778 35.6 560.676 30.6303 560.676 24.5C560.676 18.3697 555.778 13.4 549.737 13.4C544.066 13.4 539.404 17.7772 538.852 23.3831C536.616 22.3573 534.202 21.7443 531.729 21.583C533.108 12.7517 540.645 6 549.737 6C559.806 6 567.97 14.2827 567.97 24.5C567.97 34.3446 560.391 42.3932 550.831 42.9673V43H538.815V41.3854C538.815 39.288 537.962 37.2484 536.4 35.7236C534.833 34.1944 532.68 33.3128 530.41 33.3128C528.139 33.3128 525.987 34.1944 524.42 35.7236C522.857 37.2484 522.005 39.288 522.005 41.3854V43H514V41.3459C514 37.0218 515.769 32.9088 518.862 29.9018C521.857 26.991 525.856 25.3419 530.019 25.2446C530.149 25.2416 530.279 25.24 530.41 25.24C530.511 25.24 530.612 25.2409 530.712 25.2428C534.907 25.3187 538.941 26.9704 541.957 29.9018C543.628 31.5257 544.912 33.472 545.74 35.6H549.737Z" fill="#5233DD"/>
<path d="M533.762 38.3051C534.651 39.0895 535.15 40.1535 535.15 41.2628V43H525.669V41.2628C525.669 40.1535 526.169 39.0895 527.058 38.3051C527.947 37.5206 529.152 37.08 530.41 37.08C531.667 37.08 532.873 37.5206 533.762 38.3051Z" fill="#5233DD"/>
<path d="M553.913 22.6835C552.595 22.6835 551.527 21.5994 551.527 20.2618V19.6563C551.527 18.6532 550.725 17.84 549.736 17.84C548.748 17.84 547.946 18.6531 547.946 19.6563V20.2618C547.946 21.5994 546.878 22.6835 545.559 22.6835H544.963C543.974 22.6835 543.173 23.4968 543.173 24.5C543.173 25.5031 543.974 26.3163 544.963 26.3163H545.559C546.878 26.3163 547.946 27.4006 547.946 28.7381V29.3436C547.946 30.3468 548.748 31.16 549.736 31.16C550.725 31.16 551.527 30.3468 551.527 29.3436V28.7381C551.527 27.4006 552.595 26.3163 553.913 26.3163H554.51C555.499 26.3163 556.3 25.5031 556.3 24.5C556.3 23.4968 555.499 22.6835 554.51 22.6835H553.913Z" fill="#5233DD"/>
<path d="M524.211 8.96004C524.211 10.5948 525.517 11.92 527.128 11.92H527.857C529.065 11.92 530.045 12.9139 530.045 14.14C530.045 15.3661 529.065 16.36 527.857 16.36H527.128C525.517 16.36 524.211 17.6852 524.211 19.3199V20.06C524.211 21.2861 523.231 22.28 522.023 22.28C520.814 22.28 519.835 21.2861 519.835 20.06V19.32C519.835 17.6852 518.529 16.36 516.917 16.36H516.188C514.98 16.36 514 15.3661 514 14.14C514 12.9139 514.98 11.92 516.188 11.92H516.917C518.529 11.92 519.835 10.5948 519.835 8.96V8.22C519.835 6.99393 520.814 6 522.023 6C523.231 6 524.211 6.99393 524.211 8.22V8.96004Z" fill="#5233DD"/>
<path d="M732.137 18.2458C737.615 18.2458 740.259 22.1289 740.259 26.6267V35.0722H734.526V27.6298C734.526 25.5912 733.794 23.9086 731.691 23.9086C729.589 23.9086 728.888 25.5912 728.888 27.6298V35.0722H723.155V27.6298C723.155 25.5912 722.454 23.9086 720.351 23.9086C718.249 23.9086 717.517 25.5912 717.517 27.6298V35.0722H711.783V26.6267C711.783 22.1289 714.426 18.2458 719.905 18.2458C722.899 18.2458 725.065 19.4432 726.053 21.417C727.104 19.4432 729.398 18.2458 732.137 18.2458Z" fill="#1D0F5F"/>
<path d="M701.48 29.8948C703.328 29.8948 704.124 28.1799 704.124 26.1413V18.8931H709.857V26.8532C709.857 31.6099 707.118 35.5576 701.48 35.5576C695.843 35.5576 693.103 31.6099 693.103 26.8532V18.8931H698.836V26.1413C698.836 28.1799 699.633 29.8948 701.48 29.8948Z" fill="#1D0F5F"/>
<path d="M684.672 35.59C681.073 35.59 678.748 34.328 677.378 31.8687L681.519 29.5065C682.092 30.5421 682.953 31.0598 684.386 31.0598C685.565 31.0598 686.106 30.6391 686.106 30.1214C686.106 28.1475 677.697 30.1538 677.697 23.8762C677.697 20.8346 680.245 18.3754 684.577 18.3754C688.367 18.3754 690.438 20.2521 691.362 22.0642L687.221 24.4587C686.87 23.4879 685.787 22.9055 684.704 22.9055C683.876 22.9055 683.43 23.2614 683.43 23.7468C683.43 25.753 691.839 23.9086 691.839 29.992C691.839 33.3896 688.558 35.59 684.672 35.59Z" fill="#1D0F5F"/>
<path d="M664.641 42.5147H658.908V26.9504C658.908 21.9995 662.571 18.4077 667.667 18.4077C672.636 18.4077 676.426 22.2584 676.426 26.9504C676.426 32.1277 673.05 35.5577 667.985 35.5577C666.807 35.5577 665.629 35.2017 664.641 34.6516V42.5147ZM667.667 30.0891C669.482 30.0891 670.693 28.6653 670.693 26.9827C670.693 25.2677 669.482 23.8763 667.667 23.8763C665.851 23.8763 664.641 25.2677 664.641 26.9827C664.641 28.6653 665.851 30.0891 667.667 30.0891Z" fill="#1D0F5F"/>
<path d="M653.165 17.1781C651.285 17.1781 649.724 15.5926 649.724 13.6834C649.724 11.7743 651.285 10.1887 653.165 10.1887C655.044 10.1887 656.604 11.7743 656.604 13.6834C656.604 15.5926 655.044 17.1781 653.165 17.1781ZM650.298 18.8931H656.031V35.0722H650.298V18.8931Z" fill="#1D0F5F"/>
<path d="M639.298 35.5576C634.328 35.5576 630.538 31.6746 630.538 26.9503C630.538 22.2583 634.328 18.3754 639.298 18.3754C644.266 18.3754 648.057 22.2583 648.057 26.9503C648.057 31.6746 644.266 35.5576 639.298 35.5576ZM639.298 30.089C641.113 30.089 642.323 28.6653 642.323 26.9827C642.323 25.2676 641.113 23.8439 639.298 23.8439C637.482 23.8439 636.271 25.2676 636.271 26.9827C636.271 28.6653 637.482 30.089 639.298 30.089Z" fill="#1D0F5F"/>
<path d="M619.712 43C615.762 43 612.895 41.2203 611.429 38.0493L616.175 35.4606C616.685 36.5607 617.641 37.6933 619.616 37.6933C621.686 37.6933 623.056 36.3666 623.215 34.0368C622.451 34.7163 621.241 35.2341 619.425 35.2341C614.998 35.2341 611.429 31.7717 611.429 26.918C611.429 22.226 615.22 18.4077 620.189 18.4077C625.286 18.4077 628.949 21.9995 628.949 26.9504V33.3573C628.949 39.1817 624.967 43 619.712 43ZM620.094 29.7655C621.814 29.7655 623.119 28.5683 623.119 26.7886C623.119 25.0412 621.814 23.8763 620.094 23.8763C618.405 23.8763 617.068 25.0412 617.068 26.7886C617.068 28.5683 618.405 29.7655 620.094 29.7655Z" fill="#1D0F5F"/>
<path d="M601.704 35.5576C596.735 35.5576 592.945 31.6746 592.945 26.9503C592.945 22.2583 596.735 18.3754 601.704 18.3754C606.673 18.3754 610.463 22.2583 610.463 26.9503C610.463 31.6746 606.673 35.5576 601.704 35.5576ZM601.704 30.089C603.52 30.089 604.73 28.6653 604.73 26.9827C604.73 25.2676 603.52 23.8439 601.704 23.8439C599.888 23.8439 598.678 25.2676 598.678 26.9827C598.678 28.6653 599.888 30.089 601.704 30.089Z" fill="#1D0F5F"/>
<path d="M582.504 13.2303V29.5713H591.996V35.0722H581.707C578.076 35.0722 576.611 33.1307 576.611 30.0566V13.2303H582.504Z" fill="#1D0F5F"/>
</g>
<g clip-path="url(#clip3_323_969)">
<path d="M827.046 6.50043C827.891 5.6067 829.04 5.10461 830.235 5.10461C835.615 5.10461 840.684 5.10462 845.677 5.10463C855.718 5.10465 860.746 17.9377 853.646 25.443L838.18 41.7916C837.47 42.5421 836.256 42.0105 836.256 40.9491V26.5499L838.043 24.6605C839.463 23.1595 838.458 20.5928 836.449 20.5928H813.714L827.046 6.50043Z" fill="#3A04FF"/>
<path d="M822.924 40.6425C822.079 41.5362 820.931 42.0383 819.735 42.0383C814.355 42.0383 809.286 42.0383 804.293 42.0383C794.252 42.0382 789.224 29.2053 796.324 21.6998L811.79 5.35134C812.5 4.6008 813.714 5.13237 813.714 6.19379L813.714 20.5928L811.927 22.4823C810.507 23.9834 811.512 26.55 813.521 26.55L836.256 26.5499L822.924 40.6425Z" fill="#3A04FF"/>
<path d="M946.666 17.48V36.0466H952.032V17.48H946.666Z" fill="#110051"/>
<path d="M947.04 14.3912C947.674 15.0354 948.449 15.3575 949.367 15.3575C950.283 15.3575 951.054 15.0354 951.676 14.3912C952.31 13.747 952.627 12.9648 952.627 12.0445C952.627 11.1012 952.31 10.3132 951.676 9.68053C951.054 9.03634 950.283 8.71423 949.367 8.71423C948.449 8.71423 947.674 9.03634 947.04 9.68053C946.406 10.3132 946.089 11.1012 946.089 12.0445C946.089 12.9648 946.406 13.747 947.04 14.3912Z" fill="#110051"/>
<path fill-rule="evenodd" clip-rule="evenodd" d="M955.06 43.2939V17.48H960.155V19.3263H960.221C960.542 19.005 960.887 18.7117 961.259 18.4463C962.458 17.595 963.839 17.1694 965.402 17.1694C966.772 17.1694 968.08 17.5318 969.325 18.2565C970.582 18.9812 971.601 20.0568 972.382 21.4832C973.162 22.9097 973.542 24.687 973.52 26.8151C973.531 28.4256 973.31 29.829 972.857 31.0254C972.404 32.2102 971.793 33.1938 971.023 33.976C970.254 34.7582 969.393 35.3449 968.441 35.736C967.491 36.1271 966.529 36.3227 965.555 36.3227C964.015 36.3227 962.634 35.8856 961.411 35.0114C961.103 34.7883 960.812 34.5468 960.537 34.2866H960.426V43.2939H955.06ZM964.298 31.7673C965.09 31.7558 965.787 31.5431 966.387 31.1289C966.987 30.7148 967.457 30.1281 967.796 29.3689C968.136 28.6096 968.301 27.7239 968.289 26.7115C968.301 25.6763 968.131 24.7905 967.78 24.0542C967.44 23.3065 966.959 22.7371 966.336 22.3459C965.714 21.9434 965 21.7478 964.197 21.7593C963.438 21.7478 962.758 21.9376 962.159 22.3288C961.558 22.7199 961.083 23.2893 960.732 24.037C960.381 24.7732 960.206 25.6647 960.206 26.7115C960.206 27.7239 960.381 28.6096 960.732 29.3689C961.094 30.1281 961.581 30.7148 962.192 31.1289C962.804 31.5431 963.506 31.7558 964.298 31.7673Z" fill="#110051"/>
<path d="M978.687 35.7533C979.683 36.1329 980.725 36.3227 981.811 36.3227C983.057 36.3227 984.195 36.0754 985.224 35.5808C986.266 35.0861 987.098 34.3959 987.721 33.5101C988.355 32.6129 988.672 31.5833 988.672 30.4214C988.672 29.5011 988.48 28.7246 988.095 28.092C987.721 27.4593 987.245 26.9416 986.668 26.539C986.102 26.1363 985.519 25.82 984.919 25.59C984.319 25.3484 983.792 25.1643 983.339 25.0378C982.751 24.8652 982.185 24.6869 981.641 24.5029C981.098 24.3189 980.651 24.1003 980.3 23.8471C979.949 23.5941 979.773 23.2605 979.773 22.8463C979.773 22.4323 979.949 22.0871 980.3 21.8111C980.651 21.535 981.092 21.3969 981.625 21.3969C982.258 21.3969 982.779 21.5694 983.187 21.9146C983.606 22.2597 983.922 22.6163 984.138 22.9844L988.264 21.1726C987.744 19.9762 986.86 19.0157 985.616 18.2909C984.381 17.5663 982.988 17.2039 981.437 17.2039C980.193 17.2039 979.082 17.4397 978.109 17.9113C977.147 18.383 976.383 19.0387 975.816 19.8784C975.262 20.7067 974.985 21.6672 974.985 22.7601C974.985 23.7954 975.222 24.6754 975.698 25.4002C976.174 26.1248 976.79 26.723 977.549 27.1947C978.318 27.6548 979.134 28.0172 979.994 28.2818C980.368 28.3853 980.776 28.5003 981.217 28.6269C981.67 28.7534 982.1 28.9029 982.508 29.0756C982.915 29.2481 983.249 29.4551 983.509 29.6967C983.77 29.9383 983.9 30.2259 983.9 30.5595C983.9 30.8241 983.81 31.0713 983.628 31.3014C983.459 31.5315 983.22 31.7213 982.915 31.8708C982.609 32.0089 982.253 32.0779 981.845 32.0779C981.076 32.0779 980.408 31.8364 979.841 31.3532C979.275 30.87 978.851 30.3582 978.568 29.8175L974.356 31.6983C974.741 32.6301 975.313 33.4468 976.071 34.1485C976.83 34.8387 977.702 35.3737 978.687 35.7533Z" fill="#110051"/>
<path d="M1010.49 36.0466V17.48H1015.6V19.844H1015.69C1016.09 19.2791 1016.54 18.8017 1017.04 18.4117C1018.06 17.6065 1019.27 17.2039 1020.66 17.2039C1021.81 17.2039 1022.79 17.4914 1023.6 18.0667C1024.22 18.4954 1024.72 19.0706 1025.11 19.7922H1025.21C1025.79 19.0428 1026.49 18.456 1027.32 18.0321C1028.39 17.48 1029.56 17.2039 1030.83 17.2039C1032.04 17.2039 1033.04 17.4224 1033.82 17.8596C1034.6 18.2852 1035.21 18.8489 1035.65 19.5506C1036.09 20.2408 1036.41 21 1036.59 21.8283C1036.77 22.645 1036.86 23.4388 1036.86 24.2096V36.0466H1031.46V24.8825C1031.46 23.8702 1031.25 23.0937 1030.83 22.553C1030.42 22.0009 1029.82 21.7248 1029.03 21.7248C1028.51 21.7248 1028.05 21.8456 1027.64 22.0871C1027.24 22.3172 1026.92 22.668 1026.69 23.1397C1026.46 23.6114 1026.35 24.1923 1026.35 24.8825V36.0466H1020.98V24.8825C1020.98 23.8702 1020.77 23.0937 1020.35 22.553C1019.93 22.0009 1019.33 21.7248 1018.54 21.7248C1017.77 21.7248 1017.13 21.9951 1016.62 22.5358C1016.11 23.0649 1015.85 23.8587 1015.85 24.917V36.0466H1010.49Z" fill="#110051"/>
<path d="M997.354 36.3226C996.098 36.3226 994.954 36.0523 993.925 35.5117C992.894 34.9595 992.073 34.1542 991.462 33.096C990.862 32.0261 990.562 30.709 990.562 29.1445V17.48H995.928V28.4198C995.928 29.4896 996.2 30.3063 996.743 30.87C997.298 31.4222 997.972 31.6983 998.764 31.6983C999.353 31.6983 999.868 31.5659 1000.31 31.3014C1000.76 31.0368 1001.11 30.663 1001.36 30.1798C1001.62 29.6851 1001.75 29.0985 1001.75 28.4198V17.48H1007.12V29.5414C1007.12 30.2086 1007.22 30.6917 1007.41 30.9908C1007.6 31.2899 1007.99 31.5488 1008.58 31.7673L1006.68 36.3226C1005.33 35.9661 1004.35 35.5002 1003.72 34.9251C1003.41 34.6352 1003.17 34.3016 1003.01 33.9242H1002.87C1002.4 34.4086 1001.87 34.84 1001.29 35.2184C1000.15 35.9546 998.837 36.3226 997.354 36.3226Z" fill="#110051"/>
<path fill-rule="evenodd" clip-rule="evenodd" d="M935.047 36.3227C933.291 36.3227 931.689 35.9144 930.241 35.0976C928.802 34.2808 927.653 33.1535 926.793 31.7156C925.944 30.2776 925.52 28.6211 925.52 26.746C925.52 24.871 925.944 23.2145 926.793 21.7765C927.653 20.3386 928.802 19.217 930.241 18.4117C931.689 17.6065 933.291 17.2039 935.047 17.2039C936.835 17.2039 938.448 17.6065 939.886 18.4117C941.324 19.217 942.462 20.3386 943.3 21.7765C944.149 23.2145 944.573 24.871 944.573 26.746C944.573 28.6211 944.149 30.2776 943.3 31.7156C942.462 33.1535 941.318 34.2808 939.869 35.0976C938.431 35.9144 936.824 36.3227 935.047 36.3227ZM935.047 31.6638C935.884 31.6638 936.637 31.4568 937.305 31.0426C937.973 30.6285 938.499 30.0533 938.884 29.3171C939.269 28.5809 939.461 27.7238 939.461 26.746C939.461 25.8028 939.275 24.963 938.901 24.2267C938.527 23.4906 938.012 22.9154 937.356 22.5013C936.699 22.0756 935.94 21.8628 935.08 21.8628C934.231 21.8628 933.466 22.0698 932.787 22.484C932.119 22.8866 931.593 23.456 931.208 24.1923C930.824 24.9285 930.631 25.7798 930.631 26.746C930.631 27.7238 930.824 28.5809 931.208 29.3171C931.604 30.0533 932.137 30.6285 932.805 31.0426C933.473 31.4568 934.219 31.6638 935.047 31.6638Z" fill="#110051"/>
<path fill-rule="evenodd" clip-rule="evenodd" d="M909.636 43.0005C910.904 43.3801 912.297 43.5699 913.814 43.5699C915.229 43.5699 916.525 43.3858 917.703 43.0177C918.88 42.6612 919.899 42.1205 920.759 41.3957C921.631 40.6711 922.304 39.7738 922.781 38.7039C923.256 37.6341 923.493 36.3917 923.493 34.9768V17.4627H918.62V19.2744H918.518C918.194 18.959 917.843 18.6714 917.465 18.4117C916.288 17.5949 914.912 17.1866 913.339 17.1866C911.98 17.1866 910.672 17.5375 909.415 18.2392C908.159 18.9294 907.129 19.9647 906.325 21.3452C905.532 22.7141 905.136 24.4338 905.136 26.5045C905.136 28.0574 905.368 29.4091 905.832 30.5595C906.296 31.7098 906.913 32.6703 907.684 33.4411C908.465 34.2003 909.33 34.7697 910.282 35.1493C911.233 35.5175 912.189 35.7015 913.151 35.7015C914.703 35.7015 916.084 35.2701 917.296 34.4074C917.678 34.1308 918.037 33.8259 918.368 33.4928H918.45V35.2874C918.45 36.1731 918.167 36.8864 917.601 37.427C917.035 37.9792 916.35 38.3818 915.546 38.6349C914.742 38.888 913.966 39.0145 913.22 39.0145C912.348 39.0145 911.487 38.8707 910.638 38.5832C909.8 38.307 909.064 37.9735 908.431 37.5823L906.665 41.8617C907.389 42.2528 908.38 42.6324 909.636 43.0005ZM916.633 30.6457C916.011 31.0599 915.291 31.2669 914.476 31.2669C913.672 31.2669 912.965 31.0599 912.353 30.6457C911.742 30.2201 911.261 29.6392 910.91 28.9029C910.559 28.1552 910.383 27.2982 910.383 26.3319C910.383 25.3656 910.559 24.5258 910.91 23.8127C911.272 23.0994 911.77 22.553 912.405 22.1734C913.039 21.7822 913.757 21.5867 914.561 21.5867C915.365 21.5867 916.073 21.7765 916.684 22.1561C917.296 22.5358 917.776 23.0821 918.127 23.7954C918.478 24.4971 918.654 25.3426 918.654 26.3319C918.654 27.3097 918.473 28.1725 918.111 28.9202C917.748 29.6564 917.255 30.2316 916.633 30.6457Z" fill="#110051"/>
<path fill-rule="evenodd" clip-rule="evenodd" d="M894.246 36.3227C892.492 36.3227 890.89 35.9144 889.44 35.0976C888.003 34.2808 886.853 33.1535 885.993 31.7156C885.144 30.2776 884.719 28.6211 884.719 26.746C884.719 24.871 885.144 23.2145 885.993 21.7765C886.853 20.3386 888.003 19.217 889.44 18.4117C890.89 17.6065 892.492 17.2039 894.246 17.2039C896.035 17.2039 897.648 17.6065 899.086 18.4117C900.523 19.217 901.661 20.3386 902.499 21.7765C903.348 23.2145 903.773 24.871 903.773 26.746C903.773 28.6211 903.348 30.2776 902.499 31.7156C901.661 33.1535 900.518 34.2808 899.069 35.0976C897.631 35.9144 896.024 36.3227 894.246 36.3227ZM894.246 31.6638C895.084 31.6638 895.836 31.4568 896.504 31.0426C897.172 30.6285 897.699 30.0533 898.084 29.3171C898.469 28.5809 898.661 27.7238 898.661 26.746C898.661 25.8028 898.475 24.963 898.101 24.2267C897.727 23.4906 897.213 22.9154 896.556 22.5013C895.899 22.0756 895.14 21.8628 894.28 21.8628C893.431 21.8628 892.667 22.0698 891.987 22.484C891.319 22.8866 890.793 23.456 890.408 24.1923C890.023 24.9285 889.83 25.7798 889.83 26.746C889.83 27.7238 890.023 28.5809 890.408 29.3171C890.805 30.0533 891.336 30.6285 892.005 31.0426C892.673 31.4568 893.419 31.6638 894.246 31.6638Z" fill="#110051"/>
<path d="M870.212 10.6124V36.0467H884.8V31.0081H875.782V10.6124H870.212Z" fill="#110051"/>
</g>
<g clip-path="url(#clip4_323_969)">
<path d="M1102.11 33.7883C1102.11 33.8256 1102.11 33.8631 1102.11 33.9005C1102.11 34.1878 1102.12 34.4698 1102.14 34.7464H1107.84C1107.78 34.4787 1107.76 34.1968 1107.76 33.9005C1107.76 33.8629 1107.76 33.8255 1107.76 33.7883H1102.11Z" fill="#283841"/>
<path d="M1095.16 33.7883V34.7464H1089.76V33.7883H1095.16Z" fill="#283841"/>
<path d="M1102.16 32.8136H1107.89C1107.97 32.5344 1108.07 32.2687 1108.2 32.0163C1108.23 31.9615 1108.26 31.9079 1108.3 31.8555H1102.3C1102.24 32.1673 1102.19 32.4866 1102.16 32.8136Z" fill="#283841"/>
<path d="M1095.16 31.8555V32.8136H1089.76V31.8555H1095.16Z" fill="#283841"/>
<path d="M1101.61 30.8805C1101.38 30.6628 1101.07 30.4959 1100.66 30.3799C1100.22 30.2642 1099.59 30.2063 1098.77 30.2063H1095.16V30.8805H1089.76V29.9225H1101.89V30.8805H1101.61Z" fill="#283841"/>
<path d="M1102.54 30.8805H1109.24C1109.31 30.8266 1109.39 30.7753 1109.48 30.7269C1110.02 30.4129 1110.64 30.2559 1111.34 30.2559C1112.05 30.2559 1112.66 30.4129 1113.19 30.7269C1113.27 30.7753 1113.35 30.8266 1113.43 30.8805H1120.1C1120.03 30.6598 1119.95 30.4434 1119.86 30.2311C1119.82 30.1269 1119.78 30.0241 1119.73 29.9225H1102.91C1102.86 30.0241 1102.82 30.1269 1102.77 30.2311C1102.69 30.4434 1102.61 30.6598 1102.54 30.8805Z" fill="#283841"/>
<path d="M1103.43 28.9476H1119.23C1119.02 28.6109 1118.8 28.2915 1118.55 27.9896H1104.11C1103.86 28.2915 1103.63 28.6109 1103.43 28.9476Z" fill="#283841"/>
<path d="M1105.06 27.0148H1117.61C1117.2 26.6542 1116.75 26.3348 1116.27 26.0566H1106.4C1105.92 26.3348 1105.48 26.6542 1105.06 27.0148Z" fill="#283841"/>
<path d="M1101.89 26.0566V27.0148H1089.66C1089.64 26.8487 1089.6 26.6977 1089.56 26.5616C1089.52 26.3725 1089.45 26.2042 1089.38 26.0566H1101.89Z" fill="#283841"/>
<path d="M1126.24 26.0566C1126.21 26.0678 1126.19 26.0791 1126.17 26.0905C1125.63 26.3582 1125.14 26.6663 1124.69 27.0148H1136.77C1136.77 27.004 1136.77 26.9935 1136.78 26.9831C1136.89 26.6194 1137.07 26.3384 1137.32 26.1401V26.0566H1126.24Z" fill="#283841"/>
<path d="M1141.85 26.0566C1141.37 26.3348 1140.92 26.6542 1140.5 27.0148H1153.05C1152.64 26.6542 1152.2 26.3348 1151.71 26.0566H1141.85Z" fill="#283841"/>
<path d="M1179.71 26.0566H1187.38C1187.67 26.2131 1187.94 26.3896 1188.18 26.5863C1188.35 26.7225 1188.5 26.8654 1188.65 27.0148H1179.71V26.0566Z" fill="#283841"/>
<path d="M1164.32 26.0566H1170.49C1170.42 26.1965 1170.35 26.3565 1170.29 26.5368C1170.24 26.6767 1170.21 26.836 1170.17 27.0148H1164.58C1164.56 26.8487 1164.53 26.6977 1164.5 26.5616C1164.45 26.3725 1164.39 26.2042 1164.32 26.0566Z" fill="#283841"/>
<path d="M1156.99 26.0566H1163.09C1163.02 26.2042 1162.96 26.3725 1162.91 26.5616C1162.88 26.6977 1162.85 26.8487 1162.83 27.0148H1157.25C1157.23 26.8487 1157.2 26.6977 1157.17 26.5616C1157.12 26.3725 1157.06 26.2042 1156.99 26.0566Z" fill="#283841"/>
<path d="M1154 27.9896H1139.55C1139.3 28.2915 1139.08 28.6109 1138.87 28.9476H1154.67C1154.47 28.6109 1154.24 28.2915 1154 27.9896Z" fill="#283841"/>
<path d="M1157.34 28.9476V28.4707C1157.34 28.3029 1157.34 28.1425 1157.33 27.9896H1162.75C1162.75 28.1425 1162.74 28.3029 1162.74 28.4707V28.9476H1157.34Z" fill="#283841"/>
<path d="M1155.18 29.9225H1138.35C1138.31 30.0241 1138.26 30.1269 1138.22 30.2311C1138.13 30.4434 1138.06 30.6598 1137.99 30.8805H1144.68C1144.76 30.8266 1144.84 30.7753 1144.92 30.7269C1145.46 30.4129 1146.08 30.2559 1146.79 30.2559C1147.49 30.2559 1148.11 30.4129 1148.63 30.7269C1148.71 30.7753 1148.79 30.8266 1148.87 30.8805H1155.55C1155.48 30.6598 1155.4 30.4434 1155.31 30.2311C1155.27 30.1269 1155.22 30.0241 1155.18 29.9225Z" fill="#283841"/>
<path d="M1157.34 30.8805V29.9225H1162.74V30.8805H1157.34Z" fill="#283841"/>
<path d="M1155.8 31.8555H1149.79C1149.82 31.9079 1149.85 31.9615 1149.88 32.0163C1150.02 32.2687 1150.13 32.5344 1150.21 32.8136H1155.94C1155.91 32.4866 1155.86 32.1673 1155.8 31.8555Z" fill="#283841"/>
<path d="M1157.34 32.8136V31.8555H1162.74V32.8136H1157.34Z" fill="#283841"/>
<path d="M1156 33.7883H1150.35C1150.35 33.8255 1150.35 33.8629 1150.35 33.9005C1150.35 34.1968 1150.32 34.4787 1150.27 34.7464H1155.96C1155.99 34.4698 1156 34.1878 1156 33.9005C1156 33.8631 1156 33.8256 1156 33.7883Z" fill="#283841"/>
<path d="M1157.34 34.7464V33.7883H1162.74V34.7464H1157.34Z" fill="#283841"/>
<path d="M1155.84 35.7213H1149.92C1149.91 35.7427 1149.89 35.7639 1149.88 35.785C1149.7 36.1291 1149.46 36.4274 1149.18 36.6793H1155.62C1155.71 36.3682 1155.79 36.0489 1155.84 35.7213Z" fill="#283841"/>
<path d="M1157.34 36.6793V35.7213H1162.74V36.6793H1157.34Z" fill="#283841"/>
<path d="M1155.27 37.6542H1138.25C1138.39 37.9873 1138.55 38.3065 1138.73 38.6123H1154.81C1154.98 38.3065 1155.14 37.9873 1155.27 37.6542Z" fill="#283841"/>
<path d="M1157.34 38.6123V37.6542H1162.74V38.6123H1157.34Z" fill="#283841"/>
<path d="M1154.17 39.5872H1139.38C1139.61 39.89 1139.86 40.1764 1140.13 40.4463C1140.17 40.4796 1140.2 40.5125 1140.24 40.5452H1153.32C1153.35 40.5125 1153.38 40.4796 1153.42 40.4463C1153.69 40.1764 1153.94 39.89 1154.17 39.5872Z" fill="#283841"/>
<path d="M1157.28 40.5452C1157.31 40.2652 1157.33 39.9459 1157.34 39.5872H1162.74C1162.75 39.9459 1162.77 40.2652 1162.8 40.5452H1157.28Z" fill="#283841"/>
<path d="M1152.08 41.52H1141.48C1141.97 41.8361 1142.5 42.1063 1143.06 42.3306C1144.19 42.7769 1145.43 43 1146.79 43C1148.13 43 1149.37 42.7769 1150.5 42.3306C1151.06 42.1063 1151.59 41.8361 1152.08 41.52Z" fill="#283841"/>
<path d="M1135.4 40.5452V39.5872H1123.42C1123.71 39.9333 1124.03 40.2526 1124.38 40.5452H1135.4Z" fill="#283841"/>
<path d="M1125.83 41.52H1135.4V42.7769C1135.04 42.6612 1134.68 42.6034 1134.32 42.6034C1134.08 42.6034 1133.72 42.6364 1133.27 42.7025C1132.82 42.7686 1132.31 42.8017 1131.72 42.8017C1129.61 42.8017 1127.79 42.4463 1126.27 41.7355C1126.12 41.6667 1125.98 41.5949 1125.83 41.52Z" fill="#283841"/>
<path d="M1117.87 40.5452C1117.91 40.5125 1117.94 40.4796 1117.97 40.4463C1118.25 40.1764 1118.5 39.89 1118.73 39.5872H1103.93C1104.16 39.89 1104.42 40.1764 1104.69 40.4463C1104.72 40.4796 1104.76 40.5125 1104.79 40.5452H1117.87Z" fill="#283841"/>
<path d="M1106.04 41.52H1116.64C1116.15 41.8361 1115.62 42.1063 1115.05 42.3306C1113.92 42.7769 1112.69 43 1111.34 43C1109.98 43 1108.74 42.7769 1107.61 42.3306C1107.05 42.1063 1106.53 41.8361 1106.04 41.52Z" fill="#283841"/>
<path d="M1095.23 40.5452C1095.19 40.2656 1095.17 39.9462 1095.17 39.5872H1089.76C1089.75 39.9459 1089.74 40.2652 1089.7 40.5452H1095.23Z" fill="#283841"/>
<path d="M1089.5 41.52H1095.48C1095.61 41.8361 1095.78 42.0733 1095.97 42.2314V42.4546H1089.07V42.2314C1089.25 42.067 1089.39 41.8298 1089.5 41.52Z" fill="#283841"/>
<path d="M1089.76 38.6123H1095.16V37.6542H1089.76V38.6123Z" fill="#283841"/>
<path d="M1089.76 36.6793H1095.16V35.7213H1089.76V36.6793Z" fill="#283841"/>
<path d="M1102.26 35.7213C1102.31 36.0489 1102.39 36.3682 1102.47 36.6793H1108.93C1108.64 36.4274 1108.4 36.1291 1108.2 35.785C1108.19 35.7639 1108.18 35.7427 1108.17 35.7213H1102.26Z" fill="#283841"/>
<path d="M1114.47 35.7213C1114.46 35.7427 1114.45 35.7639 1114.44 35.785C1114.25 36.1291 1114.02 36.4274 1113.73 36.6793H1120.18C1120.27 36.3682 1120.34 36.0489 1120.4 35.7213H1114.47Z" fill="#283841"/>
<path d="M1121.68 35.7213C1121.74 36.0513 1121.81 36.3706 1121.9 36.6793H1128.46C1128.16 36.4476 1127.91 36.1744 1127.72 35.8594C1127.69 35.8141 1127.66 35.768 1127.63 35.7213H1121.68Z" fill="#283841"/>
<path d="M1127.27 34.7464H1121.56C1121.54 34.4395 1121.53 34.1246 1121.53 33.8015C1121.53 33.797 1121.53 33.7927 1121.53 33.7883H1127.18C1127.18 34.1281 1127.21 34.4475 1127.27 34.7464Z" fill="#283841"/>
<path d="M1137.2 34.7464H1131C1131.17 34.533 1131.3 34.2346 1131.4 33.851C1131.4 33.8305 1131.41 33.8096 1131.41 33.7883H1136.76C1136.77 33.8096 1136.77 33.8305 1136.78 33.851C1136.87 34.2346 1137.01 34.533 1137.2 34.7464Z" fill="#283841"/>
<path d="M1137.7 35.7213C1137.76 36.0489 1137.83 36.3682 1137.92 36.6793H1144.37C1144.08 36.4274 1143.84 36.1291 1143.64 35.785C1143.63 35.7639 1143.62 35.7427 1143.61 35.7213H1137.7Z" fill="#283841"/>
<path d="M1143.28 34.7464H1137.59C1137.56 34.4698 1137.55 34.1878 1137.55 33.9005C1137.55 33.8631 1137.55 33.8256 1137.56 33.7883H1143.2C1143.2 33.8255 1143.2 33.8629 1143.2 33.9005C1143.2 34.1968 1143.23 34.4787 1143.28 34.7464Z" fill="#283841"/>
<path d="M1143.34 32.8136C1143.41 32.5344 1143.51 32.2687 1143.64 32.0163C1143.68 31.9615 1143.71 31.9079 1143.74 31.8555H1137.74C1137.68 32.1673 1137.64 32.4866 1137.61 32.8136H1143.34Z" fill="#283841"/>
<path d="M1136.63 32.8136C1136.61 32.5513 1136.61 32.2608 1136.61 31.942V31.8555H1131.57V31.942C1131.57 32.2608 1131.56 32.5513 1131.55 32.8136H1136.63Z" fill="#283841"/>
<path d="M1127.27 32.8136C1127.35 32.4711 1127.46 32.1517 1127.62 31.8555H1121.71C1121.65 32.1664 1121.6 32.4858 1121.57 32.8136H1127.27Z" fill="#283841"/>
<path d="M1120.5 32.8136C1120.47 32.4866 1120.42 32.1673 1120.36 31.8555H1114.35C1114.38 31.9079 1114.41 31.9615 1114.44 32.0163C1114.58 32.2687 1114.69 32.5344 1114.76 32.8136H1120.5Z" fill="#283841"/>
<path d="M1114.9 33.7883C1114.9 33.8255 1114.9 33.8629 1114.9 33.9005C1114.9 34.1968 1114.88 34.4787 1114.82 34.7464H1120.52C1120.54 34.4698 1120.55 34.1878 1120.55 33.9005C1120.55 33.8631 1120.55 33.8256 1120.55 33.7883H1114.9Z" fill="#283841"/>
<path d="M1121.96 30.8805H1128.44C1128.64 30.7194 1128.85 30.5773 1129.09 30.4543C1129.71 30.1567 1130.44 30.008 1131.28 30.008C1131.38 30.008 1131.47 30.009 1131.57 30.011V30.8805H1136.61V29.9225H1122.34C1122.2 30.2311 1122.07 30.5505 1121.96 30.8805Z" fill="#283841"/>
<path d="M1122.89 28.9476H1136.61V28.6938C1136.61 28.4364 1136.61 28.2016 1136.62 27.9896H1123.64C1123.37 28.2883 1123.12 28.6076 1122.89 28.9476Z" fill="#283841"/>
<path d="M1135.4 37.6542H1122.24C1122.38 37.9879 1122.54 38.3073 1122.73 38.6123H1135.4V37.6542Z" fill="#283841"/>
<path d="M1119.37 38.6123C1119.54 38.3065 1119.69 37.9873 1119.83 37.6542H1102.81C1102.95 37.9873 1103.11 38.3065 1103.28 38.6123H1119.37Z" fill="#283841"/>
<path d="M1157.08 41.52H1163C1163.11 41.8298 1163.26 42.067 1163.43 42.2314V42.4546H1156.65V42.2314C1156.83 42.067 1156.97 41.8298 1157.08 41.52Z" fill="#283841"/>
<path d="M1164.38 41.52C1164.26 41.8298 1164.11 42.067 1163.91 42.2314V42.4546H1171.79C1173.26 42.4546 1174.52 42.2149 1175.57 41.7355C1175.73 41.6681 1175.88 41.5962 1176.02 41.52H1164.38Z" fill="#283841"/>
<path d="M1181.38 41.52C1182.51 42.2753 1184.04 42.6529 1185.95 42.6529C1186.39 42.6529 1186.79 42.6281 1187.15 42.5785C1187.51 42.5289 1187.78 42.5041 1187.96 42.5041C1188.24 42.5041 1188.54 42.562 1188.87 42.6777V41.52H1181.38Z" fill="#283841"/>
<path d="M1188.87 40.5452H1180.3C1180.06 40.2508 1179.86 39.9315 1179.72 39.5872H1188.87V40.5452Z" fill="#283841"/>
<path d="M1190.59 41.52C1190.48 41.8298 1190.34 42.067 1190.16 42.2314V42.4546H1196.92V42.2314C1196.74 42.067 1196.6 41.8298 1196.49 41.52H1190.59Z" fill="#283841"/>
<path d="M1196.3 40.5452H1190.79C1190.83 40.2652 1190.84 39.9459 1190.85 39.5872H1196.26C1196.26 39.9459 1196.28 40.2652 1196.3 40.5452Z" fill="#283841"/>
<path d="M1199.22 41.52C1199.12 41.8298 1198.97 42.067 1198.78 42.2314V42.4546H1205.56V42.2314C1205.37 42.067 1205.22 41.8298 1205.11 41.52H1199.22Z" fill="#283841"/>
<path d="M1204.91 40.5452H1199.41C1199.44 40.2652 1199.46 39.9459 1199.47 39.5872H1204.85C1204.86 39.9459 1204.87 40.2652 1204.91 40.5452Z" fill="#283841"/>
<path d="M1206.34 41.52C1206.21 41.8324 1206.05 42.0695 1205.84 42.2314V42.4546H1211.75V42.281C1211.61 42.031 1211.54 41.7773 1211.53 41.52H1206.34Z" fill="#283841"/>
<path d="M1211.8 40.5452H1206.57C1206.61 40.2668 1206.63 39.9475 1206.64 39.5872H1212.64L1212.29 39.9256C1212.09 40.1364 1211.92 40.343 1211.8 40.5452Z" fill="#283841"/>
<path d="M1219.47 41.52C1219.45 41.777 1219.38 42.0306 1219.24 42.281V42.4546H1225.09V42.2314C1224.89 42.0695 1224.73 41.8324 1224.59 41.52H1219.47Z" fill="#283841"/>
<path d="M1224.35 40.5452H1219.24C1219.11 40.3222 1218.93 40.0991 1218.7 39.876L1218.42 39.5872H1224.28C1224.3 39.9475 1224.32 40.2668 1224.35 40.5452Z" fill="#283841"/>
<path d="M1224.28 38.6123V37.6542H1216.52L1217.46 38.6123H1224.28Z" fill="#283841"/>
<path d="M1213.63 38.6123L1214.6 37.6542H1206.65V38.6123H1213.63Z" fill="#283841"/>
<path d="M1204.85 38.6123V37.6542H1199.47V38.6123H1204.85Z" fill="#283841"/>
<path d="M1196.25 38.6123V37.6542H1190.85V38.6123H1196.25Z" fill="#283841"/>
<path d="M1188.87 38.6123V37.6542H1188.23C1188.18 37.6916 1188.13 37.7265 1188.07 37.7588C1188 37.7991 1187.93 37.8354 1187.86 37.8677C1187.77 37.9059 1187.67 37.9391 1187.55 37.9674C1187.54 37.9705 1187.53 37.9736 1187.51 37.9766C1187.49 37.9818 1187.47 37.9868 1187.44 37.9916C1187.3 38.0412 1187.13 38.066 1186.95 38.066C1186.58 38.066 1186.28 37.9752 1186.07 37.7933C1186.02 37.7489 1185.97 37.7026 1185.93 37.6542H1179.34C1179.34 37.9888 1179.37 38.3082 1179.42 38.6123H1188.87Z" fill="#283841"/>
<path d="M1178.57 38.6123C1178.68 38.3094 1178.76 37.99 1178.81 37.6542H1172.57C1172.24 37.8131 1171.82 37.8925 1171.32 37.8925H1170.07V37.6542H1164.67V38.6123H1178.57Z" fill="#283841"/>
<path d="M1164.66 39.5872C1164.66 39.9459 1164.64 40.2652 1164.6 40.5452H1177.36C1177.61 40.2962 1177.83 40.0235 1178.03 39.7273C1178.06 39.681 1178.09 39.6343 1178.12 39.5872H1164.66Z" fill="#283841"/>
<path d="M1164.67 36.6793H1170.07V35.7213H1164.67V36.6793Z" fill="#283841"/>
<path d="M1164.67 34.7464H1170.07V33.7883H1164.67V34.7464Z" fill="#283841"/>
<path d="M1164.67 32.8136H1177.73C1177.48 32.476 1177.19 32.1566 1176.86 31.8555H1164.67V32.8136Z" fill="#283841"/>
<path d="M1164.67 30.8805H1175.54C1174.94 30.5284 1174.26 30.209 1173.48 29.9225H1164.67V30.8805Z" fill="#283841"/>
<path d="M1164.67 28.9476H1170.3L1170.07 28.8822V28.4707C1170.07 28.3025 1170.07 28.1421 1170.08 27.9896H1164.66C1164.66 28.1425 1164.67 28.3029 1164.67 28.4707V28.9476Z" fill="#283841"/>
<path d="M1179.71 27.9896V28.9476H1189.76C1189.66 28.609 1189.53 28.2897 1189.37 27.9896H1179.71Z" fill="#283841"/>
<path d="M1191.65 27.9896C1191.49 28.2902 1191.35 28.6096 1191.24 28.9476H1204.46C1204.35 28.6096 1204.21 28.2902 1204.05 27.9896H1191.65Z" fill="#283841"/>
<path d="M1206.64 27.9896C1206.64 28.1425 1206.65 28.3029 1206.65 28.4707V28.9476H1211.9V28.4707C1211.9 28.3029 1211.9 28.1425 1211.91 27.9896H1206.64Z" fill="#283841"/>
<path d="M1211.99 27.0148H1206.56C1206.54 26.8487 1206.51 26.6977 1206.48 26.5616C1206.43 26.3725 1206.37 26.2042 1206.3 26.0566H1212.25C1212.18 26.2042 1212.12 26.3725 1212.07 26.5616C1212.04 26.6977 1212.01 26.8487 1211.99 27.0148Z" fill="#283841"/>
<path d="M1219.04 27.9896C1219.05 28.1425 1219.05 28.3029 1219.05 28.4707V28.9476H1224.28V28.4707C1224.28 28.3029 1224.28 28.1425 1224.29 27.9896H1219.04Z" fill="#283841"/>
<path d="M1224.36 27.0148H1218.96C1218.94 26.8487 1218.91 26.6977 1218.88 26.5616C1218.83 26.3725 1218.77 26.2042 1218.69 26.0566H1224.63C1224.56 26.2042 1224.5 26.3725 1224.45 26.5616C1224.42 26.6977 1224.39 26.8487 1224.36 27.0148Z" fill="#283841"/>
<path d="M1202.38 26.0566H1193.33C1192.94 26.3353 1192.6 26.6546 1192.3 27.0148H1203.41C1203.11 26.6546 1202.77 26.3353 1202.38 26.0566Z" fill="#283841"/>
<path d="M1224.28 29.9225H1219.05V30.8805H1224.28V29.9225Z" fill="#283841"/>
<path d="M1224.28 31.8555H1219.05V32.8136H1224.28V31.8555Z" fill="#283841"/>
<path d="M1224.28 33.7883H1219.05V33.8897L1218.95 33.7883H1206.65V34.7464H1224.28V33.7883Z" fill="#283841"/>
<path d="M1224.28 35.7213H1206.65V36.6793H1224.28V35.7213Z" fill="#283841"/>
<path d="M1204.85 36.6793V35.7213H1199.47V36.6793H1204.85Z" fill="#283841"/>
<path d="M1196.25 36.6793V35.7213H1190.85V36.6793H1196.25Z" fill="#283841"/>
<path d="M1185.86 36.6793C1185.89 36.6196 1185.93 36.5611 1185.97 36.504C1186.13 36.3222 1186.4 36.0825 1186.76 35.785L1186.84 35.7213H1179.73C1179.6 36.0329 1179.5 36.3524 1179.43 36.6793H1185.86Z" fill="#283841"/>
<path d="M1178.88 36.6793C1178.89 36.6541 1178.89 36.6286 1178.89 36.6032C1178.89 36.3005 1178.87 36.0065 1178.84 35.7213H1173.38C1173.41 35.8814 1173.43 36.0514 1173.43 36.2313C1173.43 36.3921 1173.42 36.5415 1173.38 36.6793H1178.88Z" fill="#283841"/>
<path d="M1172.77 34.7464H1178.65C1178.56 34.4131 1178.45 34.0937 1178.3 33.7883H1170.61L1170.76 33.8263C1171.67 34.0693 1172.34 34.3762 1172.77 34.7464Z" fill="#283841"/>
<path d="M1181.14 33.7883C1180.81 34.0871 1180.52 34.4064 1180.28 34.7464H1188.06C1188.34 34.476 1188.6 34.1941 1188.82 33.9005C1188.85 33.8633 1188.87 33.826 1188.9 33.7883H1181.14Z" fill="#283841"/>
<path d="M1190.85 33.7883V34.7464H1196.25V33.7883H1190.85Z" fill="#283841"/>
<path d="M1196.25 32.8136H1190.85V31.8555H1196.26C1196.26 31.9392 1196.25 32.0258 1196.25 32.1155V32.8136Z" fill="#283841"/>
<path d="M1199.47 33.7883V34.7464H1204.85V33.7883H1199.47Z" fill="#283841"/>
<path d="M1204.85 32.8136H1199.47V32.1155C1199.47 32.0258 1199.47 31.9392 1199.46 31.8555H1204.85V32.8136Z" fill="#283841"/>
<path d="M1206.65 32.8136H1211.9V31.8555H1206.65V32.8136Z" fill="#283841"/>
<path d="M1206.65 30.8805H1211.9V29.9225H1206.65V30.8805Z" fill="#283841"/>
<path d="M1204.71 29.9225H1190.99C1190.94 30.2291 1190.9 30.5484 1190.88 30.8805H1196.51C1196.55 30.8075 1196.6 30.7398 1196.65 30.6774C1196.93 30.3468 1197.33 30.1815 1197.85 30.1815C1198.37 30.1815 1198.78 30.3468 1199.05 30.6774C1199.11 30.7398 1199.15 30.8075 1199.2 30.8805H1204.82C1204.8 30.5484 1204.76 30.2291 1204.71 29.9225Z" fill="#283841"/>
<path d="M1189.96 30.8805C1189.97 30.7644 1189.97 30.647 1189.97 30.5285C1189.97 30.3213 1189.96 30.1191 1189.94 29.9225H1183.02C1183.13 29.9724 1183.23 30.034 1183.32 30.1071C1183.59 30.3172 1183.73 30.5751 1183.76 30.8805H1189.96Z" fill="#283841"/>
<path d="M1183.45 31.8555C1183.44 31.8679 1183.43 31.8801 1183.42 31.8923C1183.22 32.129 1182.88 32.4362 1182.4 32.8136H1189.48C1189.55 32.65 1189.62 32.4834 1189.68 32.3138C1189.73 32.1634 1189.78 32.0107 1189.82 31.8555H1183.45Z" fill="#283841"/>
<path d="M1181.18 29.9225H1179.71V30.7765H1179.9L1180.27 30.4046C1180.4 30.3054 1180.54 30.2227 1180.69 30.1567C1180.84 30.0692 1181 29.9911 1181.18 29.9225Z" fill="#283841"/>
<path d="M1213.88 31.8555L1212.8 32.8136H1217.96L1217 31.8555H1213.88Z" fill="#283841"/>
<path d="M1216.01 30.8806H1214.98L1215.46 30.4543H1215.59L1216.01 30.8806Z" fill="#283841"/>
<path d="M1089.75 27.9896H1101.89V28.9476H1089.76V28.4707C1089.76 28.3029 1089.76 28.1425 1089.75 27.9896Z" fill="#283841"/>
<path d="M1228.47 6C1228.16 6 1227.88 6.05215 1227.63 6.15646C1227.37 6.25676 1227.14 6.40119 1226.95 6.58974C1226.76 6.77429 1226.61 6.99293 1226.51 7.24568C1226.41 7.49844 1226.36 7.77525 1226.36 8.07613C1226.36 8.37703 1226.41 8.65384 1226.51 8.90659C1226.61 9.15934 1226.76 9.38 1226.95 9.56855C1227.14 9.75309 1227.37 9.89752 1227.63 10.0018C1227.88 10.1021 1228.16 10.1523 1228.47 10.1523C1228.77 10.1523 1229.05 10.1021 1229.31 10.0018C1229.56 9.89752 1229.79 9.75309 1229.98 9.56855C1230.17 9.38 1230.32 9.15934 1230.42 8.90659C1230.52 8.65384 1230.58 8.37703 1230.58 8.07613C1230.58 7.77525 1230.52 7.49844 1230.42 7.24568C1230.32 6.99293 1230.17 6.77429 1229.98 6.58974C1229.79 6.40119 1229.56 6.25676 1229.31 6.15646C1229.05 6.05215 1228.77 6 1228.47 6ZM1227.68 9.382C1227.45 9.25763 1227.28 9.08312 1227.16 8.85845C1227.03 8.63379 1226.97 8.37301 1226.97 8.07613C1226.97 7.77525 1227.03 7.51447 1227.16 7.29383C1227.28 7.06916 1227.45 6.89465 1227.68 6.77028C1227.9 6.64591 1228.16 6.58373 1228.47 6.58373C1228.76 6.58373 1229.03 6.64591 1229.25 6.77028C1229.48 6.89465 1229.65 7.06916 1229.78 7.29383C1229.9 7.51447 1229.96 7.77525 1229.96 8.07613C1229.96 8.37301 1229.9 8.63379 1229.78 8.85845C1229.65 9.08312 1229.48 9.25763 1229.25 9.382C1229.03 9.50637 1228.76 9.56855 1228.47 9.56855C1228.16 9.56855 1227.9 9.50637 1227.68 9.382ZM1227.84 7.7271H1227.88C1227.91 7.69502 1227.95 7.66893 1228 7.64888C1228.04 7.63684 1228.08 7.63082 1228.13 7.63082C1228.2 7.63082 1228.27 7.64888 1228.33 7.68498C1228.38 7.72109 1228.43 7.76923 1228.46 7.82941C1228.49 7.88959 1228.51 7.9598 1228.51 8.04003C1228.51 8.16841 1228.47 8.27272 1228.41 8.35296C1228.34 8.43319 1228.24 8.47331 1228.13 8.47331C1228.07 8.47331 1228.02 8.46128 1227.97 8.43721C1227.95 8.42517 1227.93 8.41314 1227.92 8.4011C1227.9 8.38506 1227.88 8.37102 1227.88 8.35897H1227.83V9.17739C1227.87 9.19344 1227.92 9.20548 1227.98 9.21351C1228.04 9.22153 1228.11 9.22554 1228.17 9.22554C1228.42 9.22554 1228.64 9.17739 1228.83 9.08111C1229.02 8.98081 1229.16 8.8424 1229.27 8.66589C1229.38 8.48535 1229.43 8.27874 1229.43 8.04605C1229.43 7.81738 1229.38 7.61477 1229.28 7.43825C1229.18 7.26173 1229.04 7.12533 1228.87 7.02904C1228.69 6.92875 1228.48 6.8786 1228.26 6.8786C1228.2 6.8786 1228.15 6.8806 1228.11 6.88462C1228.07 6.88863 1228.04 6.89063 1228.01 6.89063C1227.95 6.89063 1227.89 6.88462 1227.84 6.87258V7.7271Z" fill="#283841"/>
<path fill-rule="evenodd" clip-rule="evenodd" d="M1102.77 20.4624C1102.33 19.3549 1102.11 18.1318 1102.11 16.7929C1102.11 15.454 1102.33 14.2308 1102.77 13.1234C1103.23 12.0159 1103.87 11.0572 1104.69 10.2473C1105.52 9.43732 1106.5 8.80921 1107.61 8.36291C1108.74 7.91663 1109.98 7.69348 1111.34 7.69348C1112.69 7.69348 1113.92 7.91663 1115.05 8.36291C1116.18 8.80921 1117.16 9.43732 1117.97 10.2473C1118.79 11.0572 1119.42 12.0159 1119.86 13.1234C1120.32 14.2308 1120.55 15.454 1120.55 16.7929C1120.55 18.1318 1120.32 19.3549 1119.86 20.4624C1119.42 21.5698 1118.79 22.5285 1117.97 23.3385C1117.16 24.1485 1116.18 24.7765 1115.05 25.2228C1113.92 25.6692 1112.69 25.8923 1111.34 25.8923C1109.98 25.8923 1108.74 25.6692 1107.61 25.2228C1106.5 24.7765 1105.52 24.1485 1104.69 23.3385C1103.87 22.5285 1103.23 21.5698 1102.77 20.4624ZM1114.9 16.7929C1114.9 16.0821 1114.75 15.454 1114.44 14.9085C1114.14 14.3631 1113.73 13.9333 1113.19 13.6192C1112.66 13.3052 1112.05 13.1482 1111.34 13.1482C1110.64 13.1482 1110.02 13.3052 1109.48 13.6192C1108.94 13.9333 1108.51 14.3631 1108.2 14.9085C1107.91 15.454 1107.76 16.0821 1107.76 16.7929C1107.76 17.4871 1107.91 18.1152 1108.2 18.6772C1108.51 19.2226 1108.94 19.6524 1109.48 19.9665C1110.02 20.2806 1110.64 20.4376 1111.34 20.4376C1112.05 20.4376 1112.66 20.2806 1113.19 19.9665C1113.73 19.6524 1114.14 19.2226 1114.44 18.6772C1114.75 18.1152 1114.9 17.4871 1114.9 16.7929Z" fill="#283841"/>
<path d="M1098.77 20.4872H1095.16V11.3629C1095.16 10.5199 1095.24 9.8753 1095.38 9.42901C1095.53 8.98271 1095.73 8.6604 1095.97 8.46204V8.23889H1089.07V8.46204C1089.3 8.67693 1089.47 9.01577 1089.59 9.4786C1089.7 9.92489 1089.76 10.553 1089.76 11.3629V22.2227C1089.76 23.0327 1089.7 23.669 1089.56 24.1318C1089.45 24.5782 1089.26 24.9088 1089 25.1236V25.3467H1099.76C1100.15 25.3467 1100.53 25.3633 1100.91 25.3963C1101.29 25.4294 1101.61 25.4872 1101.89 25.5699V19.7185H1101.7C1101.47 19.9829 1101.12 20.1814 1100.66 20.3135C1100.22 20.4293 1099.59 20.4872 1098.77 20.4872Z" fill="#283841"/>
<path d="M1131.4 16.8423C1131.51 17.2886 1131.57 17.925 1131.57 18.7515V20.6824C1131.47 20.6844 1131.38 20.6854 1131.28 20.6854C1130.44 20.6854 1129.71 20.5367 1129.09 20.2391C1128.49 19.9251 1128.01 19.4871 1127.67 18.9251C1127.34 18.3466 1127.18 17.677 1127.18 16.9167C1127.18 16.1068 1127.36 15.4126 1127.72 14.834C1128.08 14.2555 1128.61 13.8175 1129.31 13.52C1130.03 13.2059 1130.91 13.0489 1131.94 13.0489C1132.37 13.0489 1132.74 13.0737 1133.07 13.1233C1133.41 13.1728 1133.72 13.2472 1134 13.3464C1134.22 13.4125 1134.42 13.5034 1134.62 13.6191C1134.83 13.7183 1135.02 13.8423 1135.18 13.991H1135.4V7.91652C1135.04 8.03222 1134.68 8.09008 1134.32 8.09008C1134.08 8.09008 1133.72 8.05702 1133.27 7.9909C1132.82 7.92478 1132.31 7.89172 1131.72 7.89172C1129.61 7.89172 1127.79 8.24711 1126.27 8.95787C1124.74 9.66863 1123.57 10.6934 1122.76 12.0323C1121.94 13.3712 1121.53 14.9911 1121.53 16.8919C1121.53 18.6606 1121.94 20.2061 1122.76 21.5284C1123.57 22.8508 1124.71 23.8756 1126.17 24.6029C1127.64 25.3301 1129.35 25.6938 1131.3 25.6938C1132.37 25.6938 1133.41 25.6195 1134.44 25.4706C1135.48 25.3219 1136.43 25.0905 1137.32 24.7764V24.5533C1137.07 24.3549 1136.89 24.074 1136.78 23.7103C1136.66 23.3467 1136.61 22.7764 1136.61 21.9995V18.7515C1136.61 17.925 1136.66 17.2886 1136.78 16.8423C1136.89 16.3796 1137.07 16.0407 1137.32 15.8258V15.6026H1130.88V15.8258C1131.11 16.0407 1131.29 16.3796 1131.4 16.8423Z" fill="#283841"/>
<path fill-rule="evenodd" clip-rule="evenodd" d="M1138.22 20.4624C1137.78 19.3549 1137.55 18.1318 1137.55 16.7929C1137.55 15.454 1137.78 14.2308 1138.22 13.1234C1138.68 12.0159 1139.31 11.0572 1140.13 10.2473C1140.97 9.43732 1141.94 8.80921 1143.06 8.36291C1144.19 7.91663 1145.43 7.69348 1146.79 7.69348C1148.13 7.69348 1149.37 7.91663 1150.5 8.36291C1151.63 8.80921 1152.6 9.43732 1153.42 10.2473C1154.24 11.0572 1154.87 12.0159 1155.31 13.1234C1155.77 14.2308 1156 15.454 1156 16.7929C1156 18.1318 1155.77 19.3549 1155.31 20.4624C1154.87 21.5698 1154.24 22.5285 1153.42 23.3385C1152.6 24.1485 1151.63 24.7765 1150.5 25.2228C1149.37 25.6692 1148.13 25.8923 1146.79 25.8923C1145.43 25.8923 1144.19 25.6692 1143.06 25.2228C1141.94 24.7765 1140.97 24.1485 1140.13 23.3385C1139.31 22.5285 1138.68 21.5698 1138.22 20.4624ZM1150.35 16.7929C1150.35 16.0821 1150.19 15.454 1149.88 14.9085C1149.59 14.3631 1149.17 13.9333 1148.63 13.6192C1148.11 13.3052 1147.49 13.1482 1146.79 13.1482C1146.08 13.1482 1145.46 13.3052 1144.92 13.6192C1144.38 13.9333 1143.96 14.3631 1143.64 14.9085C1143.35 15.454 1143.2 16.0821 1143.2 16.7929C1143.2 17.4871 1143.35 18.1152 1143.64 18.6772C1143.96 19.2226 1144.38 19.6524 1144.92 19.9665C1145.46 20.2806 1146.08 20.4376 1146.79 20.4376C1147.49 20.4376 1148.11 20.2806 1148.63 19.9665C1149.17 19.6524 1149.59 19.2226 1149.88 18.6772C1150.19 18.1152 1150.35 17.4871 1150.35 16.7929Z" fill="#283841"/>
<path d="M1157.17 9.4786C1157.28 9.92489 1157.34 10.553 1157.34 11.3629V22.2227C1157.34 23.0327 1157.28 23.669 1157.17 24.1318C1157.05 24.5782 1156.88 24.9088 1156.65 25.1236V25.3467H1163.43V25.1236C1163.2 24.9088 1163.03 24.5782 1162.91 24.1318C1162.8 23.669 1162.74 23.0327 1162.74 22.2227V11.3629C1162.74 10.553 1162.8 9.92489 1162.91 9.4786C1163.03 9.01577 1163.2 8.67693 1163.43 8.46204V8.23889H1156.65V8.46204C1156.88 8.67693 1157.05 9.01577 1157.17 9.4786Z" fill="#283841"/>
<path fill-rule="evenodd" clip-rule="evenodd" d="M1170.29 24.1566C1170.44 24.6029 1170.63 24.9252 1170.88 25.1236V25.3467H1163.98V25.1236C1164.21 24.9088 1164.38 24.5782 1164.5 24.1318C1164.61 23.669 1164.67 23.0327 1164.67 22.2227V11.3629C1164.67 10.553 1164.6 9.92489 1164.47 9.4786C1164.36 9.01577 1164.17 8.67693 1163.91 8.46204V8.23889H1171.79C1173.26 8.23889 1174.52 8.47857 1175.57 8.95792C1176.63 9.42075 1177.45 10.0902 1178.03 10.9662C1178.6 11.8258 1178.89 12.8671 1178.89 14.0903C1178.89 15.2639 1178.64 16.3052 1178.15 17.2143C1177.66 18.1234 1176.9 18.9169 1175.89 19.5945C1174.87 20.2557 1173.57 20.8094 1171.98 21.2557L1170.07 21.8112V22.2227C1170.07 23.0657 1170.14 23.7103 1170.29 24.1566ZM1170.76 16.8672L1170.07 17.0433V12.801H1171.32C1172.01 12.801 1172.53 12.9497 1172.89 13.2473C1173.25 13.5283 1173.43 13.9332 1173.43 14.4622C1173.43 15.0572 1173.22 15.5449 1172.8 15.9251C1172.37 16.3052 1171.69 16.6193 1170.76 16.8672Z" fill="#283841"/>
<path d="M1188.67 13.3713H1188.87V8.01575C1188.54 8.13146 1188.24 8.1893 1187.96 8.1893C1187.78 8.1893 1187.51 8.16451 1187.15 8.11493C1186.79 8.06534 1186.39 8.04055 1185.95 8.04055C1183.85 8.04055 1182.22 8.4951 1181.06 9.40422C1179.91 10.2968 1179.34 11.5117 1179.34 13.0489C1179.34 13.8423 1179.52 14.5944 1179.88 15.3052C1180.24 15.9994 1180.76 16.6193 1181.45 17.1647L1182.12 17.6606C1182.75 18.14 1183.19 18.5201 1183.42 18.8012C1183.65 19.0822 1183.76 19.3879 1183.76 19.7185C1183.76 20.0656 1183.61 20.3549 1183.32 20.5863C1183.04 20.8178 1182.66 20.9334 1182.16 20.9334C1181.89 20.9334 1181.62 20.9004 1181.35 20.8342C1181.11 20.7516 1180.89 20.6525 1180.69 20.5367C1180.54 20.4706 1180.4 20.3879 1180.27 20.2887L1179.91 19.9169H1179.71V25.1484C1180.04 25.2641 1180.52 25.355 1181.16 25.4211C1181.81 25.5038 1182.45 25.5451 1183.07 25.5451C1185.28 25.5451 1186.99 25.0657 1188.18 24.1071C1189.38 23.1318 1189.97 21.8178 1189.97 20.1648C1189.97 19.5367 1189.87 18.9417 1189.68 18.3796C1189.48 17.8176 1189.2 17.2887 1188.82 16.7928C1188.44 16.2969 1187.98 15.8341 1187.42 15.4044L1186.76 14.9085C1186.4 14.611 1186.13 14.3713 1185.97 14.1895C1185.82 13.9911 1185.75 13.7762 1185.75 13.5448C1185.75 13.2969 1185.86 13.082 1186.07 12.9002C1186.28 12.7183 1186.58 12.6274 1186.95 12.6274C1187.13 12.6274 1187.3 12.6522 1187.44 12.7018C1187.61 12.7349 1187.75 12.7762 1187.86 12.8258C1188.01 12.8919 1188.15 12.9746 1188.28 13.0737C1188.43 13.1564 1188.56 13.2555 1188.67 13.3713Z" fill="#283841"/>
<path d="M1190.85 11.3629C1190.85 10.553 1190.79 9.92489 1190.68 9.4786C1190.56 9.01577 1190.39 8.67693 1190.16 8.46204V8.23889H1196.92V8.46204C1196.69 8.67693 1196.52 9.01577 1196.4 9.4786C1196.3 9.92489 1196.25 10.553 1196.25 11.3629V18.578C1196.25 19.2061 1196.39 19.6855 1196.65 20.0161C1196.93 20.3467 1197.33 20.5119 1197.85 20.5119C1198.37 20.5119 1198.78 20.3467 1199.05 20.0161C1199.33 19.6855 1199.47 19.2061 1199.47 18.578V11.3629C1199.47 10.553 1199.41 9.92489 1199.3 9.4786C1199.2 9.01577 1199.03 8.67693 1198.78 8.46204V8.23889H1205.56V8.46204C1205.32 8.67693 1205.14 9.01577 1205.02 9.4786C1204.91 9.92489 1204.85 10.553 1204.85 11.3629V19.0986C1204.85 20.5367 1204.57 21.7599 1204.01 22.7682C1203.47 23.7765 1202.68 24.5534 1201.63 25.0988C1200.6 25.6278 1199.34 25.8922 1197.85 25.8922C1196.38 25.8922 1195.12 25.6278 1194.07 25.0988C1193.04 24.5534 1192.24 23.7765 1191.69 22.7682C1191.13 21.7599 1190.85 20.5367 1190.85 19.0986V11.3629Z" fill="#283841"/>
<path d="M1206.45 9.50339C1206.58 9.98274 1206.65 10.6852 1206.65 11.6109V22.2227C1206.65 23.0327 1206.59 23.669 1206.48 24.1318C1206.36 24.5782 1206.19 24.9088 1205.96 25.1236V25.3467H1212.59V25.1236C1212.36 24.9088 1212.19 24.5782 1212.07 24.1318C1211.96 23.669 1211.9 23.0327 1211.9 22.2227V17.0863L1215.46 20.2392H1215.59L1219.05 16.8038V22.2227C1219.05 23.0327 1218.99 23.669 1218.88 24.1318C1218.76 24.5782 1218.58 24.9088 1218.34 25.1236V25.3467H1224.99V25.1236C1224.74 24.9088 1224.57 24.5782 1224.45 24.1318C1224.34 23.669 1224.28 23.0327 1224.28 22.2227V11.6109C1224.28 10.6852 1224.34 9.98274 1224.47 9.50339C1224.62 9.02404 1224.83 8.67693 1225.09 8.46204V8.23889H1219.24V8.41245C1219.46 8.80915 1219.52 9.21413 1219.44 9.62736C1219.36 10.0241 1219.11 10.4208 1218.7 10.8175L1215.57 13.9951L1212.29 10.7679C1211.89 10.3546 1211.64 9.95795 1211.56 9.57777C1211.48 9.18107 1211.54 8.79262 1211.75 8.41245V8.23889H1205.84V8.46204C1206.12 8.67693 1206.32 9.02404 1206.45 9.50339Z" fill="#283841"/>
</g>
<defs>
<clipPath id="clip0_323_969">
<rect width="224" height="37" fill="white" transform="translate(0 6)"/>
</clipPath>
<clipPath id="clip1_323_969">
<rect width="186" height="49" fill="white" transform="translate(276)"/>
</clipPath>
<clipPath id="clip2_323_969">
<rect width="227" height="37" fill="white" transform="translate(514 6)"/>
</clipPath>
<clipPath id="clip3_323_969">
<rect width="244" height="39" fill="white" transform="translate(793 5)"/>
</clipPath>
<clipPath id="clip4_323_969">
<rect width="142" height="37" fill="white" transform="translate(1089 6)"/>
</clipPath>
</defs>
</svg>
