<svg width="119" height="62" viewBox="0 0 119 62" fill="none" xmlns="http://www.w3.org/2000/svg">
<path d="M8.34092 23.7525C8.30246 23.6835 8.27926 23.5608 8.27133 23.3843C8.27795 23.206 8.27707 22.9695 8.2687 22.6749C8.21063 22.2239 8.18231 21.9466 8.18374 21.8429L8.10573 21.4093C8.07575 21.1766 8.05774 20.9793 8.05168 20.8174L7.9702 20.1846C7.98243 20.0499 7.95433 19.8317 7.8859 19.53C7.83202 19.2264 7.79692 18.839 7.78062 18.3679C7.76244 17.8823 7.76135 17.5867 7.77733 17.4811L7.72113 17.0447C7.71551 17.0011 7.70311 16.8474 7.68394 16.5837L7.66427 16.4309C7.65072 16.2109 7.62659 16.0809 7.59188 16.041L7.68429 15.2084L7.71257 14.7389C7.73417 14.677 7.82734 14.5393 7.9921 14.3258C8.03012 14.2766 8.19459 14.2332 8.48552 14.1957C8.77645 14.1583 8.99559 14.1374 9.14293 14.1333C9.29027 14.1291 9.39044 14.1605 9.44344 14.2277C9.49458 14.2802 9.55508 14.4055 9.62494 14.6035C9.73657 14.7814 9.7893 15.0186 9.78312 15.3152C9.80891 15.4006 9.82461 15.4651 9.83023 15.5087L9.85833 15.7269C9.93943 16.0123 9.97056 16.3114 9.95171 16.6244C9.9667 16.7407 9.98896 16.8562 10.0185 16.9707L10.0438 17.167C10.0812 17.458 10.0922 17.7154 10.0767 17.9392L10.1469 18.4847C10.1858 18.6719 10.1874 18.8565 10.1517 19.0386C10.1592 19.0968 10.1744 19.2723 10.1973 19.5651C10.1813 19.6707 10.1682 19.798 10.1578 19.9473C10.2164 20.058 10.2361 20.2107 10.2168 20.4055C10.1788 20.4547 10.2158 20.6274 10.3279 20.9235C10.294 21.1201 10.3453 21.461 10.4818 21.9463L10.538 22.3826C10.6415 22.8425 10.6933 23.3017 10.6932 23.7601L10.71 23.891C10.7475 24.182 10.7601 24.3948 10.7479 24.5294C10.8088 24.773 10.8491 25.0857 10.8687 25.4677L10.8855 25.5986L10.9093 26.1279C10.8823 27.1813 10.4927 27.8304 9.74047 28.0751C8.81742 28.3714 8.03549 28.2133 7.39468 27.6008L7.22161 27.2904C7.05785 27.2819 6.80385 26.9745 6.45959 26.3682C5.92678 25.446 5.632 24.9368 5.57524 24.8406C5.29854 24.2995 5.15737 24.0072 5.15175 23.9635L5.05473 23.5546C5.03643 23.5273 4.99985 23.4729 4.94497 23.3912C4.89009 23.3096 4.84249 23.227 4.80215 23.1435C4.78904 23.0416 4.71003 22.83 4.56512 22.5085C4.56137 22.4794 4.50159 22.3023 4.38577 21.9771L3.87386 20.0688C3.86824 20.0252 3.8516 19.9534 3.82394 19.8534L3.79848 20.3447C3.82216 21.3325 3.82529 21.931 3.80788 22.1402L3.98257 24.3581L4.09496 25.2309L4.16719 26.3085C4.2365 26.8467 4.32294 27.3457 4.42652 27.8056C4.4663 28.2293 4.42282 28.5233 4.29609 28.6875C4.16748 28.8371 3.95865 28.938 3.66959 28.99C3.45845 28.958 3.16801 28.8845 2.79829 28.7695C2.68897 28.7244 2.60125 28.6174 2.53514 28.4484C2.48169 28.2631 2.38108 28.1134 2.2333 27.9993C2.08552 27.8853 1.99406 27.7492 1.95891 27.591L1.48352 25.9664C1.45355 25.7337 1.42992 25.4927 1.41262 25.2436C1.40799 24.978 1.37334 24.7089 1.30865 24.4362C1.25852 24.1617 1.25367 23.837 1.29412 23.4621C1.34912 23.0853 1.35342 22.7742 1.30703 22.5288C1.25876 22.2688 1.23116 21.9397 1.22423 21.5413C1.21541 21.1284 1.19977 20.8346 1.17729 20.6601C1.15294 20.471 1.15603 20.3227 1.18655 20.2153C1.15658 19.9825 1.14771 19.7988 1.15995 19.6641C1.13978 19.6224 1.15532 19.3986 1.20657 18.9927C1.19346 18.8909 1.19561 18.7353 1.21303 18.526C1.23044 18.3168 1.23849 18.0348 1.23717 17.68C1.23585 17.3253 1.27933 17.0313 1.36761 16.7981C1.45588 16.565 1.60587 16.2943 1.81757 15.986C1.93912 15.8964 2.03114 15.6923 2.09363 15.3738C2.17672 15.2152 2.34803 15.0526 2.60756 14.8861C2.70002 14.8003 2.82625 14.747 2.98627 14.7264C3.16083 14.704 3.32739 14.7343 3.48597 14.8174C4.08139 14.9625 4.48014 15.303 4.68224 15.8389L4.83977 16.3732C4.85101 16.4605 4.94176 16.6484 5.11201 16.937C5.13075 17.0825 5.187 17.2897 5.28078 17.5586C5.307 17.7622 5.38508 17.9666 5.515 18.1717C5.756 18.8948 5.9316 19.3972 6.0418 19.6787C6.12764 19.7712 6.20362 19.9019 6.26974 20.0708C6.31569 20.198 6.39917 20.3869 6.52017 20.6375C6.5811 20.881 6.68309 21.1563 6.82613 21.4632C7.67355 23.3356 8.18591 24.3861 8.36322 24.6147C8.38482 24.5528 8.37595 24.369 8.33662 24.0636L8.34092 23.7525ZM16.9159 21.0733C16.7391 20.5046 16.4208 20.272 15.961 20.3756C15.701 20.4239 15.498 20.6274 15.352 20.9864C15.1557 21.5292 15.1246 22.2061 15.2586 23.0169C15.4052 23.8114 15.5383 24.3857 15.6579 24.74C15.7901 25.0779 15.9749 25.3647 16.2123 25.6003C16.3549 25.7889 16.5416 25.861 16.7725 25.8165C17.1798 25.764 17.434 25.3838 17.5351 24.6758L17.6422 24.1296C17.7055 24.0475 17.7107 23.9729 17.6577 23.9058C17.7564 23.5234 17.7811 23.084 17.732 22.5875C17.5734 22.5044 17.4739 22.4211 17.4336 22.3376C17.3145 22.1015 17.2493 21.9399 17.2381 21.8526C17.1269 21.793 17.0509 21.6623 17.0101 21.4605C16.9693 21.2587 16.9379 21.1297 16.9159 21.0733ZM13.187 23.6386L13.131 22.5146C13.1035 21.4977 13.2985 20.6001 13.7158 19.8218C14.1336 19.1617 14.7925 18.7663 15.6925 18.6356L15.8234 18.6188C16.6671 18.5101 17.3015 18.6133 17.7266 18.9282C18.1751 19.1958 18.5182 19.5065 18.756 19.8604C19.0084 20.2124 19.1749 20.4719 19.2556 20.639C19.3362 20.806 19.4054 21.0559 19.463 21.3886C19.5727 22.0104 19.4949 22.3827 19.2298 22.5055C19.6114 23.8612 19.6291 24.9754 19.2831 25.8481C19.1807 26.2014 19.0166 26.5922 18.7908 27.0206C18.6209 27.3086 18.276 27.5009 17.756 27.5975C17.2324 27.6649 16.7704 27.6948 16.3701 27.6872C15.9844 27.6777 15.5392 27.5502 15.0343 27.3047C14.5276 27.0446 14.1338 26.5703 13.853 25.8819C13.5613 25.2245 13.3393 24.4767 13.187 23.6386ZM25.6539 17.6634L25.7153 17.2784C25.6834 17.0311 25.7036 16.8437 25.7759 16.7161L25.8351 16.4866C25.8642 16.4829 25.8903 16.3982 25.9133 16.2326C25.9509 16.065 25.9568 15.9386 25.931 15.8532C25.9179 15.7514 25.9728 15.6038 26.0958 15.4105L26.4001 14.3288C26.4068 14.1505 26.4009 14.0477 26.3826 14.0205C26.377 13.9769 26.423 13.8748 26.5206 13.7144C26.6183 13.5539 26.6498 13.4537 26.615 13.4138C26.5963 13.2684 26.7773 13.0085 27.1579 12.6341C27.3085 12.5408 27.4193 12.4822 27.4902 12.4582C27.561 12.4343 27.6446 12.394 27.7408 12.3372C27.8496 12.2641 27.9177 12.2183 27.9449 12.2001C27.9703 12.1672 28.031 12.1224 28.1272 12.0657C28.2234 12.0089 28.3006 11.9768 28.3588 11.9693C28.4151 11.9473 28.4933 11.9224 28.5932 11.8947C28.6913 11.8525 28.784 11.8258 28.8713 11.8146C29.2058 11.7715 29.466 11.7824 29.6518 11.8472C29.8376 11.912 29.9451 11.9425 29.9742 11.9387C30.7849 12.2632 31.2405 12.4707 31.3409 12.5613C31.4863 12.5426 31.6888 12.6791 31.9482 12.9711C32.1011 13.0105 32.1814 13.0593 32.1888 13.1175C32.209 13.1593 32.2838 13.2236 32.4133 13.3104C32.5409 13.3827 32.6503 13.4278 32.7413 13.4457C32.8304 13.449 32.9036 13.5579 32.9608 13.7723L33.0681 15.4665C33.092 15.5373 33.1008 15.721 33.0947 16.0176C33.0866 16.2996 33.0211 16.5372 32.8981 16.7305C32.6095 16.9008 32.2542 17.0131 31.8324 17.0674C31.4251 17.1199 31.2132 17.1397 31.1968 17.1271C31.0331 17.1186 30.9268 16.9252 30.8781 16.547C30.8275 16.1543 30.7727 15.8434 30.7137 15.6144C30.6631 15.2216 30.6291 14.9007 30.6118 14.6515C30.6062 14.6079 30.5058 14.5173 30.3107 14.3797C30.1301 14.2403 29.9952 14.169 29.906 14.1657C29.5241 14.1853 29.2765 14.3872 29.1633 14.7715C29.0075 14.9394 28.8699 15.1346 28.7507 15.357C28.6526 15.3992 28.5777 15.5641 28.5261 15.8517C28.4725 16.1248 28.4471 16.3869 28.4498 16.6379C28.1877 18.0469 28.0575 18.7587 28.0594 18.7733C28.1088 19.8464 28.1474 20.4329 28.1751 20.5329C28.2027 20.6329 28.2088 20.7947 28.1932 21.0186C28.2607 21.5422 28.3729 22.1267 28.5299 22.7719C28.7461 23.1877 28.9272 23.4454 29.0731 23.5449C29.3194 23.735 29.7053 23.8036 30.2309 23.7507C30.7545 23.6833 31.107 23.5491 31.2881 23.3484L31.7908 22.7734L31.9183 22.5574C31.9765 22.5499 32.0197 22.426 32.0479 22.1858C32.3497 21.6589 32.5459 21.3453 32.6365 21.2449C32.7398 21.1281 32.8524 21.084 32.9744 21.1127C33.0237 21.1507 33.0948 21.1859 33.1876 21.2183C33.2932 21.2343 33.3798 21.2749 33.4473 21.3401C33.5899 21.5288 33.6976 21.6185 33.7703 21.6091C33.8576 21.5979 34.0185 21.8137 34.253 22.2567C34.4659 22.7617 34.5137 23.1326 34.3963 23.3696L34.3132 23.7574C34.2118 23.8887 34.1385 24.0091 34.0935 24.1184L33.9997 24.5963C34.0035 24.6253 33.9474 24.7065 33.8314 24.8397C33.7136 24.9584 33.6339 25.0279 33.5921 25.048C33.5484 25.0536 33.4278 25.1505 33.2302 25.3386C32.904 25.6764 32.48 25.8862 31.9582 25.9682C31.4529 26.0629 31.1509 26.0722 31.0524 25.9962C30.8924 26.0168 30.7969 26.0217 30.7659 26.0109C30.711 25.9292 30.5672 25.9034 30.3345 25.9333L30.1571 25.934L29.7475 25.8536L29.442 25.893C29.2238 25.9211 29.0045 25.8828 28.784 25.7781C28.5634 25.6734 28.4105 25.6339 28.3251 25.6597C28.2523 25.6691 28.0445 25.548 27.7016 25.2964C27.3586 25.0448 27.137 24.8737 27.0366 24.7831C26.9343 24.678 26.81 24.5165 26.6637 24.2988C26.5173 24.081 26.3719 23.8705 26.2274 23.6673C26.0811 23.4496 25.9838 23.2107 25.9355 22.9507C25.8873 22.6908 25.8502 22.5181 25.8244 22.4327C25.7987 22.3473 25.748 22.1837 25.6725 21.9421C25.5971 21.7004 25.5762 21.4813 25.6101 21.2847C25.6584 21.0862 25.6116 20.7225 25.4696 20.1937C25.4302 19.8882 25.4219 19.5935 25.4445 19.3096C25.4976 18.9183 25.5472 18.557 25.5932 18.2258C25.6374 17.8799 25.6577 17.6925 25.6539 17.6634ZM35.7265 18.651C35.7096 18.5201 35.6754 18.3692 35.6238 18.1984L35.6041 18.0457C35.6056 17.942 35.5843 17.8338 35.5402 17.7212C35.5214 17.5757 35.5191 17.4429 35.5332 17.3228C35.4958 17.0319 35.5078 16.8381 35.5693 16.7415C35.5599 16.6687 35.6402 16.4883 35.8101 16.2003C35.8608 16.1346 35.9577 16.026 36.1009 15.8745C36.3243 15.7718 36.4787 15.7075 36.5641 15.6817C36.6148 15.6161 36.814 15.6126 37.1616 15.6713C37.309 15.6671 37.541 15.689 37.8577 15.737C37.9633 15.7529 38.1092 15.8525 38.2954 16.0355C38.2738 16.0974 38.251 16.3222 38.227 16.7098C38.2156 17.0809 38.2322 17.3819 38.2767 17.6128C38.3547 17.5288 38.4877 17.3564 38.676 17.0956C38.8642 16.8347 38.9646 16.6961 38.9773 16.6797C39.333 16.4564 39.688 16.285 40.0423 16.1655C40.5604 16.0544 40.9069 16.0467 41.0819 16.1425C41.2185 16.1693 41.3287 16.2216 41.4127 16.2995C41.5586 16.399 41.6939 16.5886 41.8187 16.8683C41.9415 17.1335 41.9567 17.309 41.8643 17.3948C41.7864 17.4788 41.5029 17.5744 41.014 17.6818C40.9849 17.6855 40.8905 17.7568 40.731 17.8957L39.7115 18.9364C39.4938 19.0827 39.3469 19.2052 39.2708 19.3037L38.9546 20.1208C38.9438 20.1517 38.9536 20.3427 38.984 20.6937C39.0144 21.0447 39.0472 21.2993 39.0824 21.4574C39.1156 21.601 39.1784 22.0883 39.2706 22.9193L39.3914 23.8576C39.457 24.3667 39.4872 24.6586 39.482 24.7332C39.4787 24.8223 39.4393 24.9753 39.3637 25.1921C39.3294 25.2704 39.1959 25.3246 38.9631 25.3545C38.4501 25.8494 38.0837 25.8745 37.8637 25.4296L37.5576 25.2915C37.4337 25.2483 37.3516 25.185 37.3113 25.1014C37.1743 24.9564 37.1039 24.8694 37.1002 24.8403L36.9736 24.546L36.8089 24.301C36.7634 24.2921 36.6915 24.0204 36.5931 23.4859C36.4928 22.9369 36.4352 22.6042 36.4202 22.4879C36.4033 22.3569 36.371 22.2206 36.3231 22.0789C36.4119 21.964 36.433 21.7838 36.3866 21.5384C36.3548 21.2911 36.3159 21.1038 36.2699 20.9767C36.2221 20.8349 36.2109 20.7477 36.2362 20.7148C36.2597 20.6674 36.2262 20.4647 36.1357 20.1067C36.0846 20.0541 36.0633 19.946 36.0718 19.7822L35.7265 18.651ZM46.7798 15.6306C46.7413 15.5616 46.6357 15.5456 46.4631 15.5826C46.3049 15.6178 46.1925 15.721 46.1258 15.8922C45.6512 16.9146 45.4613 17.9668 45.5563 19.0488C46.0659 19.1015 46.4596 18.829 46.7376 18.2313C47.005 16.7476 47.019 15.8807 46.7798 15.6306ZM46.1933 24.5122L45.9695 24.4967L45.6247 24.2305C45.5374 24.2418 45.4673 24.2138 45.4143 24.1467C45.2299 23.9782 44.8903 23.6375 44.3954 23.1245L43.9135 21.9665C43.8836 21.7338 43.8137 21.5358 43.7039 21.3724C43.4742 20.7366 43.3391 20.3769 43.2988 20.2933C43.2566 20.1953 43.2001 19.929 43.1294 19.4944C43.0732 19.058 43.0538 18.7352 43.0712 18.5259C43.0792 18.2439 43.2603 17.5256 43.6144 16.3709C43.7285 16.2231 43.786 16.0383 43.787 15.8163L44.0715 15.2695C44.3428 14.8501 44.6491 14.5297 44.9902 14.3083C44.9865 14.2792 45.2244 14.1746 45.704 13.9946C45.804 13.9669 46.0414 13.9733 46.4163 14.0138C47.3153 14.105 47.8936 14.2893 48.1511 14.5667L48.2306 14.6674C48.5576 15.0245 48.7953 15.6076 48.9439 16.4166C48.9471 16.7859 48.95 17.0961 48.9528 17.3471C48.9556 17.5981 48.8536 18.0697 48.647 18.7617C48.4812 19.1971 48.3124 19.5516 48.1406 19.8251C47.8506 20.0991 47.6474 20.2435 47.531 20.2585C47.4766 20.2951 47.3548 20.3256 47.1657 20.3499L46.6638 20.4146C46.6183 20.4056 46.5228 20.4105 46.3774 20.4293C46.2319 20.448 46.0163 20.4388 45.7305 20.4017C45.7717 20.7217 45.918 21.1687 46.1694 21.7426C46.4334 22.3001 46.6321 22.6368 46.7653 22.7527C47.1007 22.9462 47.3604 23.068 47.5444 23.1182C47.7283 23.1685 47.9629 23.1531 48.2482 23.072C48.5316 22.9763 48.7295 22.8473 48.8416 22.685L49.319 21.9137C49.619 21.3723 49.9843 21.2809 50.415 21.6395C50.6139 21.8061 50.7037 21.9868 50.6844 22.1815C50.6778 22.3598 50.5782 22.7349 50.3857 23.3069C50.2125 23.6841 50.0172 24.005 49.7999 24.2696C49.3789 24.5604 49.1248 24.7114 49.0375 24.7227C48.9085 24.7541 48.702 24.7585 48.4181 24.7359C48.282 24.8274 48.0338 24.8519 47.6734 24.8096C47.6697 24.7805 47.6232 24.7643 47.5341 24.761C47.4613 24.7704 47.3567 24.7617 47.2202 24.7349L47.261 24.7074C47.2319 24.7112 47.1446 24.7224 46.9992 24.7412L46.3461 24.4925L46.1933 24.5122ZM54.116 19.0335C54.1403 19.2226 54.1557 19.4572 54.1622 19.7373C54.1687 20.0175 54.2986 20.4518 54.5518 21.0402C54.6789 21.4527 54.7863 21.7125 54.874 21.8195C54.9758 21.8064 55.0563 21.6851 55.1155 21.4556C55.1136 21.4411 55.1514 21.3327 55.2289 21.1305C55.2707 21.1103 55.3899 20.8879 55.5866 20.4633C55.6514 20.2775 55.7162 20.0918 55.781 19.906C55.7853 19.5949 55.8525 19.3126 55.9825 19.0593C56.1107 18.7914 56.2072 18.5645 56.272 18.3787C56.3349 18.1784 56.3394 17.9264 56.2856 17.6228C56.2706 17.5064 56.1747 17.1639 55.9979 16.5951C55.9595 16.5261 55.8807 16.3736 55.7616 16.1376C55.6551 15.8851 55.5299 15.7164 55.3858 15.6314C55.2545 15.53 55.1243 15.495 54.9952 15.5264C54.8662 15.5579 54.7324 15.7821 54.5939 16.1992C54.4211 16.6947 54.3119 17.1672 54.2662 17.6167C54.2206 18.0662 54.1889 18.3364 54.171 18.4275C54.1442 18.564 54.1374 18.6832 54.1505 18.785L54.116 19.0335ZM55.4154 7.4204C55.7152 7.33742 55.8952 7.29946 55.9553 7.30651C56.028 7.29715 56.1779 7.25566 56.405 7.18205C56.7574 7.50637 56.9811 7.75113 57.0763 7.91633L57.3021 8.46397C57.4335 8.56536 57.5057 8.66697 57.5188 8.76879C57.576 8.98324 57.6222 9.16954 57.6573 9.32768C57.7052 9.4694 57.7459 9.67118 57.7797 9.93301C57.8284 10.3112 57.888 11.176 57.9585 12.5274C58.0271 13.8643 58.0553 14.8292 58.0429 15.4223L58.3284 16.6056C58.7002 17.7703 58.9217 18.3998 58.993 18.4942C59.1515 19.0357 59.3989 19.5214 59.7352 19.9513L59.8013 20.1202L60.1989 20.6236C60.3288 20.8287 60.4005 21.0413 60.4141 21.2613C60.4422 21.4795 60.44 21.6351 60.4076 21.728C60.2564 22.1615 60.0809 22.4059 59.881 22.4612C59.7848 22.518 59.6247 22.5386 59.4009 22.5231C59.2118 22.5474 59.068 22.5216 58.9695 22.4455C58.9258 22.4511 58.8667 22.4514 58.7921 22.4462C58.5795 22.5179 58.4348 22.4848 58.3579 22.3468C58.2594 22.2708 58.1379 22.1312 57.9934 21.928C57.8616 21.7083 57.7127 21.5279 57.5466 21.3866L57.4066 21.1606C57.3147 20.9063 57.2614 20.78 57.2469 20.7819C57.245 20.7674 57.2331 20.7319 57.211 20.6756L56.6019 21.9741C56.5859 22.0796 56.4343 22.3949 56.147 22.9199L55.8942 23.1964C55.7309 23.3062 55.4791 23.3608 55.1389 23.3602C55.1117 23.3785 54.989 23.4017 54.7708 23.4298L53.5208 23.369C53.2365 23.2281 52.9754 22.9808 52.7376 22.6269C52.595 22.4383 52.5153 22.2785 52.4984 22.1476C52.4797 22.0021 52.3777 21.7269 52.1925 21.3219L52.1067 21.0002L52.0898 20.8693L52.0287 20.5666C52.0503 20.5047 52.0198 20.3829 51.9373 20.2013L51.8902 20.0077L51.8424 19.6368C51.8311 19.5495 51.8314 19.3794 51.8432 19.1265C51.8334 18.9355 51.8063 18.7246 51.7617 18.4937C51.7299 18.2464 51.7147 18.0709 51.7161 17.9672C51.6683 17.8255 51.6596 17.7009 51.6902 17.5935C51.648 17.4954 51.6328 17.3199 51.6446 17.067C51.624 16.907 51.7008 16.5274 51.875 15.9283C51.8014 15.7011 51.8695 15.4262 52.0793 15.1034C52.0775 15.0889 52.1361 14.9704 52.2554 14.748C52.2934 14.6987 52.395 14.6265 52.5602 14.5313L53.0389 14.1147C53.5711 13.8836 54.0765 13.7889 54.5551 13.8308L55.4672 14.0239C55.4682 13.8019 55.3682 13.0828 55.1672 11.8665C55.1447 11.692 55.1178 11.3109 55.0866 10.7234C55.0679 10.1195 55.0376 9.53934 54.9955 8.98282L55.1393 8.03267C55.1187 7.87266 55.1328 7.75254 55.1816 7.67232L55.4154 7.4204ZM63.0069 9.12679L63.0723 9.11836C63.5852 9.08189 63.9322 9.19249 64.1132 9.45014C64.307 9.69137 64.3979 9.93844 64.3861 10.1914C64.3889 10.4424 64.2319 10.7732 63.915 11.1837C63.6127 11.5923 63.3152 11.808 63.0224 11.831C62.9351 11.8422 62.7549 11.821 62.4818 11.7675C62.2233 11.712 62.0858 11.678 62.0694 11.6653C62.0474 11.609 61.9981 11.571 61.9216 11.5513C61.5247 11.4545 61.266 11.1107 61.1456 10.5199C61.1381 10.4617 61.1761 10.4125 61.2596 10.3721C61.2014 10.3796 61.1829 10.2933 61.2041 10.1131C61.2647 9.77999 61.463 9.54003 61.799 9.39324C62.2387 9.24789 62.6413 9.15908 63.0069 9.12679ZM63.6741 14.6528L63.7724 18.3445C63.7837 18.4318 63.7949 18.5191 63.8062 18.6063C63.8155 18.6791 63.8312 18.7436 63.8533 18.7999C63.8462 18.86 63.8483 18.9336 63.8595 19.0209L64.0618 20.592C64.1837 21.079 64.2212 21.37 64.1742 21.4647C64.0907 21.5051 63.9945 21.5618 63.8856 21.635C63.7786 21.7227 63.555 21.7663 63.2148 21.7657C62.8911 21.7779 62.6518 21.7569 62.4969 21.7029L62.2267 21.6712C62.0812 21.6899 61.9782 21.6366 61.9177 21.5113C61.7136 21.4193 61.5921 21.2797 61.5532 21.0924C61.5002 21.0253 61.538 20.917 61.6666 20.7673C61.6427 20.6964 61.6005 20.5984 61.54 20.4731C61.4776 20.3332 61.4462 20.2042 61.4458 20.0859C61.4801 20.0076 61.4442 19.9013 61.3382 19.7671C61.3176 19.607 61.316 19.4224 61.3334 19.2131C61.3841 19.1475 61.3715 18.9347 61.2956 18.5747C61.3786 18.4162 61.4033 18.206 61.3696 17.9441C61.2815 17.7189 61.2733 17.4833 61.3452 17.2375C61.417 16.9916 61.4452 16.7514 61.4298 16.5167C61.4121 16.1493 61.4316 15.7845 61.4885 15.4223C61.4698 15.2768 61.5053 15.0356 61.595 14.6988C61.6992 14.36 61.7694 14.1587 61.8056 14.0949L62.1097 13.7008L62.4828 13.4975L62.5046 13.4947C62.6717 13.414 62.8472 13.3988 63.0311 13.4491C63.4736 13.5548 63.7441 13.6456 63.8426 13.7217C63.7919 13.7874 63.7668 13.8793 63.7672 13.9976C63.7676 14.1158 63.7662 14.2195 63.7629 14.3087C63.7141 14.3889 63.6845 14.5036 63.6741 14.6528ZM64.9887 12.7312C64.917 12.5186 64.872 12.3987 64.8537 12.3715C64.7622 12.2354 64.709 12.1092 64.694 11.9928C64.679 11.8764 64.6643 11.8192 64.6497 11.821C64.6357 11.4827 64.7348 11.2186 64.9469 11.0286C65.1572 10.8241 65.4789 10.7383 65.912 10.7712L66.6439 10.9431L67.6786 11.0539L67.995 9.54918C68.0959 9.29957 68.1408 9.13113 68.1295 9.04385C68.1328 8.9547 68.1497 8.8564 68.1803 8.74896C68.2122 8.53781 68.2508 8.37758 68.2958 8.26826L68.3381 7.90791C68.4156 7.70569 68.6034 7.55582 68.9013 7.45829C69.0665 7.36308 69.2193 7.34341 69.3596 7.39929C69.7542 7.36326 70.0711 7.47032 70.3104 7.72048C70.3197 7.79321 70.3129 7.9124 70.2899 8.07803C70.2668 8.24366 70.2576 8.45927 70.2622 8.72485L69.9977 10.9771L70.1723 10.9546L70.715 10.8625C70.7896 10.8677 70.8705 10.8647 70.9578 10.8534C71.2685 10.7395 71.5101 10.664 71.6828 10.627C71.8536 10.5754 71.9672 10.5386 72.0235 10.5166C72.069 10.5255 72.1927 10.5096 72.3944 10.4688C72.5962 10.428 72.8156 10.4663 73.0525 10.5837C73.2876 10.6865 73.4182 10.8398 73.4444 11.0434C73.4688 11.2325 73.3521 11.4176 73.0945 11.5987L72.9318 11.8858C72.7103 12.003 72.5198 12.1311 72.3602 12.2699C72.1715 12.4125 71.3604 12.7166 69.9268 13.1822L69.9174 14.3147C69.9558 14.3837 69.9779 14.44 69.9835 14.4836C69.9622 15.1222 69.9751 15.9117 70.0223 16.8521C70.0799 17.1848 70.1162 17.4093 70.1312 17.5257L70.2071 18.1148C70.1963 18.1458 70.2012 18.2413 70.2218 18.4013C70.2686 18.7649 70.3675 19.1884 70.5185 19.6718C70.6676 20.1406 70.756 20.4249 70.7836 20.5249C70.8113 20.6249 70.8335 20.7403 70.8504 20.8712C70.8677 21.1204 70.7865 21.2935 70.6067 21.3906C70.1412 21.4505 69.7382 21.4211 69.3975 21.3023C69.1301 21.2924 69.0062 21.2492 69.026 21.1727C68.9148 21.1131 68.7806 20.9899 68.6234 20.8031C68.6085 20.6867 68.5928 20.6222 68.5763 20.6095C68.4689 20.579 68.403 20.4692 68.3786 20.2801C68.3622 20.2674 68.3411 20.2183 68.3153 20.1329L68.0924 19.6071C67.939 19.4494 67.8653 19.2223 67.8715 18.9257C67.864 18.8675 67.8328 18.7976 67.778 18.716L67.7583 18.5632C67.7433 18.4469 67.7393 18.3586 67.7464 18.2986C67.6212 17.9006 67.5667 17.4197 67.5828 16.8557C67.597 16.2771 67.6027 15.8623 67.6 15.6113C67.5615 15.5423 67.5639 15.4459 67.6071 15.322C67.5902 15.1911 67.5931 14.9837 67.6157 14.6998L67.6519 13.4308C67.5609 13.4129 67.4717 13.4096 67.3845 13.4209C66.591 13.3456 66.1769 13.288 66.1422 13.2481L65.8607 13.1291C65.7589 13.1422 65.6069 13.11 65.4046 13.0325C65.2005 12.9405 65.0619 12.8401 64.9887 12.7312ZM80.5048 5.85316C80.6972 5.73966 81.1153 5.65624 81.7591 5.60291C82.401 5.53504 82.8668 5.53422 83.1563 5.60045L83.7242 5.70476C84.2145 5.95217 84.4887 6.07213 84.5469 6.06464C85.2033 6.45332 85.6238 7.02026 85.8085 7.76544C85.937 8.07422 85.989 8.36328 85.9645 8.63261C85.9758 8.71989 85.971 8.91274 85.9503 9.21117L85.7967 9.74112L85.5826 10.1458C85.4972 10.1716 85.4473 10.1854 85.4327 10.1873C84.9057 10.3439 84.493 10.4118 84.1946 10.3911C83.8943 10.3558 83.6191 10.2286 83.3691 10.0094C83.3142 9.92771 83.2821 9.85052 83.2727 9.77778C83.2779 9.70318 83.2913 9.63491 83.3129 9.57298L83.377 9.20981C83.5062 8.71997 83.4411 8.32909 83.1817 8.03716C83.1761 7.99352 83.093 7.92288 82.9326 7.82524C82.7721 7.7276 82.6445 7.65531 82.5497 7.60836C82.4695 7.55954 82.3304 7.57006 82.1323 7.63993C81.802 7.83035 81.5609 8.31242 81.4091 9.08614C81.1669 9.50181 81.0269 10.0226 80.9892 10.6486C80.9552 11.762 80.9475 12.3915 80.9662 12.537L81.0062 13.0198L81.0315 13.2162C81.0062 13.249 81.1022 13.8799 81.3196 15.1089C81.3435 15.1798 81.3857 15.2778 81.4462 15.4031C81.5105 15.5575 81.6097 15.8109 81.7438 16.1634L82.0892 16.6069C82.1676 16.6411 82.279 16.7599 82.4235 16.9631C82.4962 16.9537 82.561 16.9972 82.6177 17.0934C82.7326 17.1821 82.7838 17.2346 82.7711 17.2511C82.8457 17.2562 82.9604 17.2858 83.1153 17.3398C83.5342 17.4929 83.8705 17.4052 84.1239 17.0768C84.2126 16.9619 84.3185 16.8078 84.4415 16.6145C84.5771 16.4048 84.6748 16.2443 84.7344 16.1331C84.8067 16.0055 84.9236 15.8796 85.085 15.7553C85.5182 15.3298 85.9347 15.291 86.3344 15.6388C86.4221 15.7458 86.4659 16.0285 86.4658 16.4869C86.4783 16.9289 86.3337 17.4134 86.0318 17.9402C86.014 18.0313 85.9382 18.1889 85.8044 18.4132C85.6687 18.6229 85.5211 18.7972 85.3615 18.936C85.3455 19.0416 84.8021 19.1855 83.7313 19.3678C83.6731 19.3752 83.5549 19.3757 83.3766 19.3691C83.2222 19.4333 83.0012 19.4396 82.7136 19.3879C82.4405 19.3343 82.2894 19.3094 82.2603 19.3132L81.9682 19.2843C81.8518 19.2992 81.7308 19.2779 81.605 19.2201C81.4793 19.1624 81.267 19.064 80.9681 18.925C80.6819 18.7697 80.4586 18.6431 80.2982 18.5455C79.8168 18.2526 79.4526 17.8928 79.2054 17.4662C79.1341 17.3719 79.0799 17.2384 79.0429 17.0657C79.004 16.8785 78.9571 16.744 78.9022 16.6624C78.7709 16.561 78.6883 16.3794 78.6546 16.1175C78.6354 15.8538 78.5797 15.5357 78.4873 15.1631C78.4649 14.9885 78.459 14.8858 78.4698 14.8548C78.3877 14.7914 78.3427 14.6715 78.3348 14.4951C78.325 14.3041 78.2995 14.0486 78.2583 13.7286C78.2907 13.6357 78.2724 13.3792 78.2036 12.9593C78.1474 12.5229 78.1198 12.1937 78.1208 11.9718C78.0457 11.8483 78.0141 11.6602 78.0259 11.4073L77.9634 10.7498C77.9442 10.4861 77.9741 10.2013 78.053 9.89541C78.0507 9.76262 78.0601 9.60613 78.0813 9.42595C78.1006 9.23123 78.2419 8.83594 78.5053 8.24009C78.4903 8.12371 78.5807 7.9642 78.7764 7.76154C78.7689 7.70336 78.8158 7.60858 78.9172 7.47722C79.0186 7.34587 79.1308 7.18354 79.2538 6.99025C79.4256 6.71674 79.6277 6.50587 79.86 6.35765C80.0923 6.20943 80.3072 6.04127 80.5048 5.85316ZM92.2048 11.5555C92.1491 11.2374 92.0454 11.0067 91.8939 10.8636C91.7405 10.7059 91.4874 10.635 91.1345 10.6508C91.0421 10.7367 90.9357 11.0018 90.8155 11.4461C90.7079 11.874 90.6623 12.3235 90.6786 12.7946C90.623 13.5116 90.6402 14.2192 90.7301 14.9174C90.8365 15.6283 91.0203 16.137 91.2816 16.4435C91.3182 16.4979 91.3501 16.516 91.3773 16.4977C91.45 16.4883 91.5476 16.3279 91.6702 16.0164C92.2613 14.5206 92.4396 13.0337 92.2048 11.5555ZM93.4179 15.636L93.2002 16.5291C93.204 16.5582 93.0333 16.8982 92.6883 17.5489C92.5929 17.8421 92.3653 18.0267 92.0054 18.1026C91.66 18.1767 91.3135 18.1843 90.9658 18.1256C90.4943 18.0237 90.1281 17.8786 89.8672 17.6903C89.6064 17.5021 89.3268 17.1684 89.0285 16.6893C88.7429 16.1937 88.5712 15.7795 88.5136 15.4469C88.3791 14.9762 88.3034 14.6754 88.2865 14.5445L88.2191 14.0208C88.1516 13.4971 88.1341 13.1888 88.1665 13.0959C88.1736 13.0359 88.1903 12.8784 88.2166 12.6237C88.2107 12.0033 88.3103 11.399 88.5155 10.8106C88.917 9.67944 89.3995 9.06276 89.9631 8.96061L90.0722 8.94656C90.1031 8.95736 90.1477 8.95901 90.2059 8.95152L90.4895 8.91499C91.0043 8.89307 91.3227 8.89644 91.4447 8.92509C91.6703 8.95518 91.8632 8.95992 92.0232 8.93931L92.6046 8.97536C92.7773 8.93833 93.0074 8.94566 93.295 8.99735C93.5972 9.04717 93.7584 9.09296 93.7785 9.13472C93.8133 9.17462 93.8775 9.32901 93.9713 9.5979C94.0651 9.86679 94.1276 10.0658 94.1591 10.1948C94.2031 10.3074 94.2409 10.4283 94.2723 10.5573C94.5254 11.6042 94.8419 12.569 95.2217 13.4518C95.2419 13.4935 95.2649 13.5571 95.2907 13.6425C95.3164 13.7279 95.3898 13.8959 95.5108 14.1465C95.63 14.3826 95.7226 14.5851 95.7887 14.754C95.8548 14.9229 95.9648 15.1454 96.1186 15.4213C96.234 15.6283 96.3977 15.866 96.6097 16.1345C96.9878 16.5442 96.8655 16.9148 96.2427 17.2464C96.1592 17.2868 96.0083 17.321 95.7902 17.3491C95.7465 17.3547 95.599 17.2998 95.3475 17.1843C95.202 17.203 95.0535 17.1408 94.902 16.9976L94.7218 16.9765C94.6069 16.8878 94.513 16.8481 94.4403 16.8575C94.4075 16.8321 94.0698 16.2767 93.4272 15.1912C93.4042 15.3568 93.4011 15.5051 93.4179 15.636ZM97.5209 10.6935C97.504 10.5626 97.4698 10.4117 97.4182 10.2409L97.3986 10.0882C97.4 9.98449 97.3787 9.87632 97.3346 9.7637C97.3159 9.61823 97.3136 9.48544 97.3277 9.36532C97.2902 9.07439 97.3022 8.8806 97.3637 8.78396C97.3544 8.71122 97.4346 8.53082 97.6046 8.24276C97.6553 8.17708 97.7522 8.06848 97.8953 7.91696C98.1187 7.81425 98.2731 7.75001 98.3585 7.72422C98.4092 7.65854 98.6084 7.65507 98.9561 7.71382C99.1034 7.70963 99.3354 7.73151 99.6522 7.77945C99.7577 7.79543 99.9036 7.89494 100.09 8.07799C100.068 8.13992 100.045 8.36468 100.021 8.75225C100.01 9.12341 100.027 9.42443 100.071 9.6553C100.149 9.57132 100.282 9.39892 100.47 9.13807C100.659 8.87723 100.759 8.7386 100.772 8.72218C101.127 8.49892 101.482 8.3275 101.837 8.20794C102.355 8.09687 102.701 8.08921 102.876 8.18498C103.013 8.21176 103.123 8.26411 103.207 8.34202C103.353 8.44153 103.488 8.63114 103.613 8.91083C103.736 9.17597 103.751 9.35147 103.659 9.43731C103.581 9.52129 103.297 9.61694 102.808 9.72426C102.779 9.72801 102.685 9.79931 102.525 9.93816L101.506 10.9789C101.288 11.1252 101.141 11.2477 101.065 11.3462L100.749 12.1633C100.738 12.1942 100.748 12.3852 100.778 12.7362C100.809 13.0872 100.842 13.3418 100.877 13.4999C100.91 13.6435 100.973 14.1308 101.065 14.9618L101.186 15.9001C101.251 16.4092 101.282 16.7011 101.276 16.7757C101.273 16.8648 101.234 17.0178 101.158 17.2345C101.124 17.3129 100.99 17.3671 100.758 17.397C100.245 17.8919 99.8781 17.917 99.6581 17.4721L99.352 17.334C99.2281 17.2908 99.146 17.2275 99.1057 17.1439C98.9687 16.9989 98.8984 16.9118 98.8946 16.8828L98.768 16.5885L98.6034 16.3435C98.5579 16.3346 98.4859 16.0629 98.3875 15.5284C98.2872 14.9794 98.2296 14.6467 98.2146 14.5303C98.1978 14.3994 98.1654 14.2631 98.1176 14.1214C98.2063 14.0064 98.2275 13.8263 98.1811 13.5808C98.1492 13.3336 98.1103 13.1463 98.0644 13.0192C98.0165 12.8774 98.0053 12.7902 98.0307 12.7573C98.0541 12.7099 98.0206 12.5072 97.9302 12.1492C97.879 12.0966 97.8577 11.9884 97.8662 11.8247L97.5209 10.6935ZM107.707 12.1324C107.731 12.3215 107.746 12.5561 107.753 12.8362C107.759 13.1164 107.889 13.5507 108.143 14.1392C108.27 14.5516 108.377 14.8114 108.465 14.9184C108.567 14.9053 108.647 14.784 108.706 14.5546C108.704 14.54 108.742 14.4316 108.82 14.2294C108.861 14.2093 108.981 13.9869 109.177 13.5623C109.242 13.3765 109.307 13.1907 109.372 13.0049C109.376 12.6938 109.443 12.4116 109.573 12.1582C109.701 11.8903 109.798 11.6635 109.863 11.4777C109.926 11.2773 109.93 11.0253 109.876 10.7217C109.861 10.6054 109.765 10.2628 109.589 9.69405C109.55 9.62507 109.471 9.47255 109.352 9.23649C109.246 8.98402 109.121 8.8153 108.977 8.73034C108.845 8.62895 108.715 8.59396 108.586 8.62536C108.457 8.65677 108.323 8.88103 108.185 9.29814C108.012 9.7936 107.903 10.2661 107.857 10.7156C107.811 11.1651 107.78 11.4354 107.762 11.5264C107.735 11.6629 107.728 11.7821 107.741 11.8839L107.707 12.1324ZM109.006 0.519317C109.306 0.43634 109.486 0.398378 109.546 0.405433C109.619 0.396067 109.769 0.354578 109.996 0.280966C110.348 0.605292 110.572 0.850052 110.667 1.01524L110.893 1.56289C111.024 1.66428 111.096 1.76588 111.11 1.86771C111.167 2.08216 111.213 2.26846 111.248 2.4266C111.296 2.56832 111.337 2.77009 111.37 3.03193C111.419 3.41014 111.479 4.27494 111.549 5.62634C111.618 6.96319 111.646 7.92816 111.634 8.52127L111.919 9.7045C112.291 10.8692 112.512 11.4987 112.584 11.5931C112.742 12.1346 112.99 12.6203 113.326 13.0502L113.392 13.2192L113.79 13.7225C113.919 13.9276 113.991 14.1402 114.005 14.3602C114.033 14.5784 114.031 14.734 113.998 14.8269C113.847 15.2604 113.672 15.5048 113.472 15.5602C113.375 15.6169 113.215 15.6375 112.992 15.622C112.803 15.6463 112.659 15.6205 112.56 15.5444C112.517 15.5501 112.457 15.5503 112.383 15.5451C112.17 15.6168 112.025 15.5837 111.949 15.4457C111.85 15.3697 111.729 15.2301 111.584 15.0269C111.452 14.8072 111.303 14.6268 111.137 14.4855L110.997 14.2595C110.905 14.0052 110.852 13.879 110.838 13.8808C110.836 13.8663 110.824 13.8308 110.802 13.7745L110.193 15.073C110.177 15.1785 110.025 15.4938 109.738 16.0188L109.485 16.2954C109.322 16.4051 109.07 16.4597 108.73 16.4592C108.702 16.4775 108.58 16.5007 108.362 16.5288L107.111 16.4679C106.827 16.3271 106.566 16.0797 106.328 15.7259C106.186 15.5372 106.106 15.3774 106.089 15.2465C106.07 15.101 105.968 14.8258 105.783 14.4208L105.697 14.0991L105.681 13.9682L105.619 13.6655C105.641 13.6036 105.61 13.4818 105.528 13.3002L105.481 13.1066L105.433 12.7357C105.422 12.6484 105.422 12.4783 105.434 12.2254C105.424 12.0344 105.397 11.8235 105.352 11.5926C105.321 11.3454 105.305 11.1699 105.307 11.0662C105.259 10.9244 105.25 10.7999 105.281 10.6924C105.239 10.5943 105.223 10.4188 105.235 10.1659C105.215 10.0059 105.291 9.62633 105.466 9.02717C105.392 8.80004 105.46 8.52509 105.67 8.20232C105.668 8.18777 105.727 8.06931 105.846 7.84692C105.884 7.79766 105.986 7.72543 106.151 7.63022L106.63 7.21366C107.162 6.98247 107.667 6.88781 108.146 6.9297L109.058 7.12278C109.059 6.90084 108.959 6.18172 108.758 4.96543C108.735 4.79087 108.709 4.40985 108.677 3.82237C108.659 3.21846 108.628 2.63826 108.586 2.08174L108.73 1.13159C108.709 0.971578 108.724 0.851459 108.772 0.771233L109.006 0.519317ZM27.1894 43.9445C27.2774 44.6282 27.2999 45.5495 27.2569 46.7085C27.3349 46.6246 27.4498 46.4841 27.6019 46.287C27.7794 46.0571 28.1483 45.7065 28.7086 45.2351L29.005 44.9529L29.6175 44.5413L30.2757 43.9685C30.2429 43.9432 30.2699 43.8658 30.3567 43.7363C30.5713 43.2207 30.677 42.7782 30.6738 42.4089C30.6494 42.2198 30.6025 42.0854 30.5331 42.0056C30.4618 41.9113 30.2716 41.8692 29.9623 41.8795C29.9295 41.8541 29.7866 41.8355 29.5337 41.8237C28.9373 41.9005 28.5419 41.9884 28.3477 42.0874C28.1679 42.1845 28.0271 42.2396 27.9253 42.2527L27.6093 42.3821L27.2411 42.4517L27.2297 43.0521C27.2316 43.0666 27.2212 43.2158 27.1986 43.4997C27.2117 43.6015 27.2087 43.7498 27.1894 43.9445ZM32.1407 53.1112C31.9131 53.0666 31.5805 52.895 31.1428 52.5965C31.0569 52.504 30.8453 52.3538 30.508 52.1458C30.1946 52.0087 29.7869 51.7137 29.285 51.2608C29.2831 51.2463 29.2172 51.1364 29.0873 50.9313C28.8921 50.7938 28.6836 50.4953 28.4618 50.0359C28.4454 50.0232 28.4198 49.9969 28.3851 49.9571C28.3504 49.9172 28.291 49.8583 28.207 49.7803C28.1357 49.686 28.0487 49.5272 27.946 49.3038C27.8433 49.0804 27.6651 48.8446 27.4113 48.5963L27.324 48.6075C27.3353 48.6948 27.3294 48.8213 27.3063 48.9869L27.3625 49.4233L27.3946 50.7057L27.3398 52.8644C27.413 52.9732 27.4383 53.1696 27.4157 53.4535C27.4307 53.5699 27.4187 53.7637 27.3797 54.0349C27.3406 54.3061 27.254 54.4947 27.1198 54.6007C26.9856 54.7067 26.7038 54.7578 26.2744 54.7539C26.1215 54.7145 25.8916 54.537 25.5848 54.2216C25.4774 54.1911 25.3019 53.9771 25.0585 53.5796C25.0539 53.314 25.0405 53.1531 25.0185 53.0967C24.9946 53.0259 24.9761 52.9395 24.963 52.8377C24.9499 52.7359 24.9487 52.6695 24.9595 52.6385C24.9341 52.6714 24.9154 52.5259 24.9033 52.2021L24.8836 52.0494C24.8761 51.9912 24.8898 51.7528 24.9246 51.3343C24.8853 51.0288 24.8581 50.8179 24.8432 50.7015C24.8408 50.5687 24.8721 50.4094 24.9369 50.2236L24.861 49.6345L24.807 49.0426C24.8605 48.7695 24.8648 48.4584 24.8199 48.1093C24.8265 47.931 24.8195 47.7618 24.7989 47.6018C24.791 47.4254 24.7957 47.2325 24.8131 47.0232C24.7719 46.7032 24.7628 46.4604 24.7859 46.2947C24.807 46.1146 24.8138 45.9954 24.8064 45.9372C24.8115 45.8626 24.812 45.7516 24.8078 45.6043L24.8398 44.6464L24.7282 43.2633L24.4439 43.1224C23.954 42.9933 23.6024 42.8463 23.3889 42.6816C23.3106 42.6473 23.2674 42.5419 23.2595 42.3655C23.2643 42.1727 23.3464 42.0068 23.506 41.868C23.7096 41.8417 23.9919 41.6797 24.3528 41.3818C24.3965 41.3762 24.518 41.2866 24.7175 41.113L25.0934 40.9315C25.1314 40.8823 25.3029 40.7789 25.608 40.6213C25.6807 40.6119 25.7924 40.5606 25.943 40.4672C26.0918 40.3593 26.2525 40.2869 26.4252 40.2499C26.5688 40.2166 26.8551 40.1428 27.284 40.0284C27.7255 39.8976 28.1047 39.8561 28.4214 39.9041C28.6105 39.8797 28.8189 39.8899 29.0464 39.9345C29.3955 39.8895 29.8033 39.9553 30.2696 40.1319C30.3715 40.1188 30.5254 40.1655 30.7313 40.2721L31.1712 40.4151L31.7729 40.7812C32.1102 40.9892 32.4269 41.2663 32.7229 41.6127C32.9199 41.7648 33.0144 41.9818 33.0063 42.2638C32.9657 43.5556 32.2476 44.9272 30.8522 46.3786L30.256 46.7438L29.2739 47.5579C29.7032 48.0202 30.2527 48.5557 30.9226 49.1645C30.9794 49.2607 31.1729 49.4428 31.5032 49.7108L32.363 50.5317L32.6755 50.8907L33.3489 51.4695C33.4056 51.5657 33.5452 51.6734 33.7676 51.7926L34.1835 52.094C34.5518 52.3127 34.7284 52.5931 34.7133 52.9352C34.6982 53.2773 34.517 53.4781 34.1697 53.5376L33.6405 53.5614L32.5566 53.4126L32.1407 53.1112ZM39.2255 45.8771C39.2556 45.6514 39.2128 45.376 39.0969 45.0508C38.9839 44.9766 38.8401 44.9507 38.6655 44.9732C38.4473 45.0013 38.2772 45.2303 38.155 45.66C37.9673 46.0391 37.8423 46.4471 37.7803 46.8839L37.7585 46.8867C37.6771 47.5183 37.6393 47.8559 37.6449 47.8995C37.8851 47.9278 38.078 47.9325 38.2234 47.9138C38.367 47.8805 38.524 47.7789 38.6944 47.6091C38.9878 47.246 39.1648 46.6687 39.2255 45.8771ZM39.5647 49.0276L38.7658 49.197C38.3148 49.2551 37.9528 49.2573 37.6798 49.2038L37.7986 49.6099C37.9977 50.8117 38.4344 51.5614 39.1086 51.859C39.2925 51.9093 39.4427 51.9269 39.559 51.9119C39.6754 51.8969 39.8206 51.8191 39.9948 51.6784C40.0455 51.6127 40.0861 51.5261 40.1166 51.4187C40.1143 51.2859 40.1795 51.2183 40.3123 51.216C40.8113 50.3828 41.2239 50.0265 41.5499 50.1472C41.8816 50.3115 42.055 50.4519 42.07 50.5682C42.0775 50.6264 42.0495 50.6966 41.9862 50.7787L42.003 50.9096C42.0218 51.055 41.9609 51.3291 41.8205 51.7316C41.6947 52.1323 41.5468 52.4767 41.3768 52.7647C41.3031 52.9961 41.1919 53.1657 41.0431 53.2735C40.6151 53.6244 40.1355 53.8045 39.6043 53.8137C39.486 53.8142 39.4023 53.7954 39.353 53.7574C39.2329 53.7432 39.1447 53.7472 39.0884 53.7693L38.911 53.7699C38.7801 53.7868 38.6673 53.7717 38.5725 53.7248C38.4158 53.6562 38.3083 53.6257 38.2501 53.6332C37.8532 53.5364 37.6064 53.4573 37.5098 53.3958C37.4277 53.3324 37.3557 53.29 37.2937 53.2684C37.2318 53.2468 37.0739 53.1118 36.8201 52.8635C36.6104 52.7279 36.4882 52.6401 36.4535 52.6002C36.3494 52.4805 36.2572 52.3963 36.177 52.3475C36.1113 52.2968 36.058 52.1705 36.0173 51.9687C35.9497 51.9035 35.9085 51.8127 35.8935 51.6963L35.7837 51.533C35.7706 51.4312 35.7167 51.3568 35.6219 51.3099C35.5234 51.2338 35.4657 51.1303 35.4488 50.9994L35.4263 50.8249C35.3644 50.8033 35.3386 50.7178 35.349 50.5686L35.2759 50.0013L35.2288 49.8078L35.2092 49.655C35.1871 49.5987 35.1857 49.4732 35.205 49.2785L35.1579 49.0849C35.1706 49.0685 35.1774 48.9493 35.1784 48.7273C35.1973 48.4144 35.2384 48.2168 35.3017 48.1347L35.2765 47.9384C35.2854 47.8928 35.2852 47.8337 35.2758 47.761C35.2664 47.6883 35.2707 47.6064 35.2885 47.5154C35.3209 47.4225 35.3952 47.0802 35.5112 46.4885L35.762 45.6799C35.8357 45.4485 35.9648 45.1879 36.1493 44.898C36.1545 44.8234 36.1958 44.685 36.2733 44.4827L36.5232 44.1844C36.5936 44.0422 36.7124 43.9308 36.8794 43.8501C37.07 43.7221 37.2162 43.6515 37.318 43.6384L37.9177 43.4724C37.9923 43.4776 38.0442 43.4783 38.0732 43.4746L38.3569 43.4381C38.6807 43.426 38.9509 43.4577 39.1677 43.5333C39.621 43.608 39.9625 43.7341 40.1924 43.9115C40.7089 44.3626 40.9971 44.8209 41.0571 45.2863C41.117 45.7518 41.0958 46.1612 40.9934 46.5145C40.7365 47.3905 40.5421 47.9479 40.4102 48.1867C40.2102 48.7005 39.9284 48.9808 39.5647 49.0276ZM47.454 44.6844L47.3203 44.6794C47.1509 44.6273 47.02 44.6442 46.9275 44.73L46.3833 45.155C45.8604 45.9174 45.5626 46.5324 45.4897 47.0002C45.4775 47.1349 45.4708 47.5424 45.4697 48.2228C45.5193 48.8375 45.6292 49.2892 45.7994 49.5778C45.8088 49.6505 45.8827 49.7076 46.0211 49.7489C46.2046 49.6809 46.3975 49.4564 46.5998 49.0755L46.7837 48.6082C47.0221 48.1634 47.1458 47.9182 47.1548 47.8727C47.1764 47.8108 47.2252 47.7306 47.3012 47.6321L47.3492 47.3153C47.3473 47.3008 47.3717 47.2607 47.4224 47.195C47.4924 46.9346 47.5875 46.5822 47.7077 46.1379C47.6909 46.007 47.7256 45.8177 47.812 45.5699C47.8989 45.4404 47.9043 45.1957 47.8284 44.8358L47.7081 44.7626C47.6063 44.7757 47.5216 44.7496 47.454 44.6844ZM45.1514 43.3395C45.2987 43.3353 45.435 43.3029 45.5603 43.2424C45.6856 43.182 45.8719 43.1358 46.1192 43.1039C46.5594 43.0768 46.8859 43.0865 47.099 43.133C47.3265 43.1777 47.4412 43.2073 47.4431 43.2218L48.0308 43.4789C48.1602 43.5657 48.2639 43.5671 48.3419 43.4832C48.5521 43.2786 48.7701 43.1914 48.9958 43.2215C49.1849 43.1972 49.358 43.2784 49.5152 43.4652C49.7085 43.5882 49.8462 43.6813 49.9283 43.7447C50.0085 43.7935 50.0507 43.8916 50.0549 44.0389C50.0572 44.1717 50.1389 44.8636 50.3 46.1146C50.4359 46.94 50.4913 47.4283 50.4664 47.5794C50.4542 47.714 50.5111 48.0986 50.6372 48.733C50.7145 48.9892 50.7607 49.1755 50.7757 49.2919C50.7907 49.4083 50.7974 49.5183 50.796 49.622L50.9302 50.492C50.9563 51.1541 51.047 51.8005 51.2021 52.4311L51.3138 53.1266L51.6215 52.9317C52.0227 52.7173 52.414 52.9997 52.7953 53.7787C52.7089 54.0264 52.6485 54.1895 52.6143 54.2678C52.6016 54.2842 52.5088 54.5402 52.336 55.0356C52.3435 55.0938 52.3111 55.1867 52.2388 55.3143C52.0201 55.6826 51.7225 55.8984 51.3462 55.9616C50.9844 56.023 50.666 56.0197 50.3911 55.9516C50.3184 55.9609 50.2628 55.9311 50.2243 55.8621L49.824 55.337L49.8183 55.2933L49.7712 55.0997C49.6657 55.0838 49.5972 55.0113 49.5658 54.8822C49.5456 54.8404 49.5327 54.7977 49.5271 54.7541L49.513 54.645C49.3353 54.2982 49.2589 54.0492 49.2838 53.8982C49.3209 53.6124 49.2672 53.3679 49.1228 53.1647C48.9929 52.9596 48.9167 52.7698 48.8942 52.5953C48.8736 52.4352 48.8757 52.2797 48.9006 52.1286C48.942 51.9902 48.9396 51.8574 48.8937 51.7302L48.8628 51.4902L48.7158 50.8659C48.5221 50.6246 48.4736 50.3055 48.5704 49.9086L48.5198 49.5158L48.5023 49.2076L48.4854 49.0766L48.353 49.4264L47.6052 50.8536C47.4911 51.0014 47.4141 51.0926 47.3742 51.1274C47.3325 51.1475 47.1788 51.1599 46.9132 51.1645C46.6476 51.1692 46.4675 51.148 46.3727 51.1011C46.3145 51.1085 46.1571 51.0919 45.9004 51.051C45.7113 51.0753 45.5393 51.0605 45.3845 51.0065C45.2278 50.9379 45.1267 50.8992 45.0812 50.8903C45.0047 50.8706 44.8417 50.8102 44.5921 50.7093C44.403 50.7336 44.2059 50.5815 44.001 50.253L43.8666 50.0707C43.7535 49.9965 43.6867 49.8794 43.6661 49.7194C43.6004 49.6687 43.5443 49.5207 43.498 49.2753C43.4487 49.2372 43.4302 49.1509 43.4424 49.0162C43.3834 48.7872 43.3154 48.3745 43.2386 47.7781C43.1599 47.1672 43.1693 46.4931 43.2666 45.756C43.2347 45.5087 43.3617 45.1744 43.6476 44.7531L43.7208 44.6328C43.7458 44.4817 43.8842 44.2938 44.1363 44.0691C44.2231 43.9396 44.4254 43.7879 44.7431 43.6139L45.1514 43.3395ZM55.1926 41.8246C55.4352 41.9856 55.5853 42.2325 55.6429 42.5652C55.7151 42.896 55.7378 43.1297 55.711 43.2662C55.6988 43.4009 55.6986 43.8593 55.7106 44.6415C55.6801 44.749 55.6761 44.89 55.6986 45.0645L55.7304 47.0346C55.8297 47.8056 55.8951 48.2556 55.9265 48.3846C55.9579 48.5137 56.0001 48.6117 56.0531 48.6788C56.0751 48.7352 56.1462 48.7704 56.2663 48.7845C56.3864 48.7986 56.4627 48.7592 56.4951 48.6663C56.4782 48.5354 56.5088 48.4279 56.5867 48.344C56.5829 48.3149 56.6513 48.099 56.7917 47.6965C56.7842 47.6383 56.7957 47.5555 56.8262 47.448C56.8713 47.3387 56.8964 47.2467 56.9016 47.1721C56.9195 47.0811 56.9338 47.0201 56.9446 46.9891C56.9971 46.938 57.0493 46.7686 57.101 46.481C57.0804 46.321 57.1461 46.1425 57.2982 45.9454C57.2926 45.9018 57.3428 45.7179 57.4489 45.3937L57.4673 45.1917C57.6579 44.6052 57.7319 44.2038 57.6893 43.9874L57.6607 42.9042L57.7665 42.0033C57.9102 41.5116 58.1646 41.1905 58.5297 41.04C58.6949 40.9448 58.9314 40.9439 59.2392 41.0373C59.5615 41.1289 59.7675 41.2355 59.8571 41.357C59.9594 41.4622 60.018 41.5729 60.033 41.6893L60.0836 42.0821L60.0926 42.3249L60.2444 43.5031C60.3568 44.3759 60.4565 45.0359 60.5437 45.4831C60.7996 46.7811 61.1984 47.8684 61.7401 48.745C62.0037 49.1843 61.9623 49.5519 61.616 49.8479C61.4165 50.0215 61.1713 50.127 60.8804 50.1645C60.3858 50.2282 60.0196 50.0831 59.7818 49.7292C59.6612 49.5969 59.5414 49.4127 59.4223 49.1766C59.3031 48.9406 59.2243 48.788 59.1859 48.7191C59.0611 48.4394 58.9823 48.2868 58.9495 48.2615L58.7216 47.8694C58.5843 48.6412 58.2967 49.5656 57.8586 50.6423C57.7666 50.8464 57.5836 51.0326 57.3095 51.201C57.0402 51.1766 56.7462 51.1331 56.4276 51.0706C56.2292 51.0222 55.9033 50.9607 55.45 50.8859C55.1554 50.8943 54.9825 50.8722 54.9313 50.8196C54.8783 50.7525 54.8363 50.7136 54.8054 50.7028C54.7871 50.6756 54.777 50.6547 54.7751 50.6401C54.7221 50.573 54.6447 50.546 54.5429 50.5591C54.4678 50.4357 54.3665 50.3378 54.2389 50.2655C54.237 50.251 54.2058 50.1811 54.1453 50.0558C53.9722 49.9746 53.8019 49.6859 53.6346 49.1899C53.5525 49.1266 53.4343 48.6686 53.2802 47.8159C53.1387 46.9469 53.0612 46.4023 53.0476 46.1823C53.0486 45.9603 53.0397 45.7766 53.021 45.6311C52.9844 45.5767 52.9748 45.4448 52.9922 45.2356C53.0097 45.0263 53.0064 44.8862 52.9825 44.8154L52.9518 43.8877L53.0252 43.0797C52.9971 42.8615 53.0408 42.6267 53.1563 42.3752C53.2718 42.1237 53.3558 41.9724 53.4084 41.9213C53.4516 41.7974 53.643 41.6766 53.9828 41.559C54.0574 41.5641 54.1538 41.5665 54.2721 41.5661C54.3884 41.5511 54.4994 41.5516 54.605 41.5676C54.7087 41.569 54.9046 41.6547 55.1926 41.8246ZM64.8997 37.1143L64.9651 37.1058C65.478 37.0694 65.825 37.18 66.006 37.4376C66.1997 37.6788 66.2907 37.9259 66.2789 38.1788C66.2817 38.4299 66.1246 38.7606 65.8078 39.1711C65.5055 39.5797 65.208 39.7955 64.9152 39.8184C64.8279 39.8297 64.6477 39.8085 64.3746 39.7549C64.1161 39.6995 63.9786 39.6655 63.9622 39.6528C63.9402 39.5965 63.8909 39.5584 63.8144 39.5387C63.4175 39.442 63.1588 39.0982 63.0383 38.5074C63.0309 38.4492 63.0689 38.3999 63.1524 38.3596C63.0942 38.3671 63.0757 38.2808 63.0969 38.1006C63.1575 37.7674 63.3558 37.5275 63.6918 37.3807C64.1315 37.2354 64.5341 37.1465 64.8997 37.1143ZM65.5669 42.6403L65.6652 46.332C65.6764 46.4193 65.6877 46.5065 65.6989 46.5938C65.7083 46.6665 65.724 46.7311 65.746 46.7874C65.739 46.8474 65.7411 46.9211 65.7523 47.0084L65.9546 48.5794C66.0765 49.0665 66.114 49.3574 66.067 49.4522C65.9835 49.4925 65.8873 49.5493 65.7784 49.6225C65.6714 49.7102 65.4478 49.7538 65.1076 49.7532C64.7838 49.7653 64.5445 49.7444 64.3897 49.6904L64.1194 49.6586C63.974 49.6774 63.871 49.6241 63.8105 49.4988C63.6064 49.4068 63.4849 49.2671 63.446 49.0799C63.393 49.0128 63.4308 48.9044 63.5594 48.7548C63.5355 48.6839 63.4933 48.5858 63.4328 48.4605C63.3704 48.3207 63.339 48.1916 63.3386 48.0734C63.3728 47.995 63.337 47.8887 63.231 47.7545C63.2104 47.5945 63.2088 47.4099 63.2262 47.2006C63.2769 47.1349 63.2642 46.9221 63.1883 46.5622C63.2714 46.4036 63.2961 46.1934 63.2624 45.9316C63.1742 45.7063 63.1661 45.4708 63.2379 45.2249C63.3098 44.9791 63.338 44.7388 63.3226 44.5042C63.3048 44.1368 63.3244 43.772 63.3813 43.4097C63.3625 43.2643 63.398 43.0231 63.4877 42.6862C63.592 42.3475 63.6622 42.1462 63.6983 42.0824L64.0025 41.6883L64.3756 41.485L64.3974 41.4822C64.5645 41.4015 64.74 41.3863 64.9239 41.4366C65.3664 41.5422 65.6368 41.6331 65.7354 41.7092C65.6847 41.7748 65.6595 41.8668 65.66 41.985C65.6604 42.1033 65.659 42.207 65.6557 42.2961C65.6069 42.3764 65.5773 42.4911 65.5669 42.6403ZM67.833 41.2172C67.6637 40.7067 67.726 40.3289 68.0198 40.0841C68.1686 39.9762 68.2875 39.9239 68.3767 39.9272C68.4785 39.9141 68.8016 39.9538 69.3458 40.0464C69.4186 40.037 69.4714 40.045 69.5042 40.0704C69.5333 40.0666 69.5788 40.0756 69.6407 40.0972C69.7717 40.0803 69.8409 40.101 69.8484 40.1592C70.0074 40.3605 70.1202 40.6048 70.1867 40.8919C70.3217 41.4809 70.4572 41.9588 70.5932 42.3258C70.5913 42.3112 70.5958 42.2885 70.6066 42.2575C70.838 41.8728 70.9572 41.6504 70.9643 41.5903C70.9314 41.565 70.9721 41.4784 71.0861 41.3307C71.1467 40.9975 71.1942 40.7918 71.2285 40.7134C71.2191 40.6407 71.2696 40.5159 71.3799 40.339C71.4555 40.1223 71.5259 39.9801 71.5911 39.9125C71.6545 39.8304 71.7052 39.7648 71.7432 39.7155C71.9333 39.4692 72.2139 39.3517 72.5851 39.3631C72.6287 39.3575 72.7078 39.3399 72.8223 39.3104C73.0513 39.2513 73.1923 39.2553 73.2453 39.3224C73.6963 39.2644 73.942 39.7947 73.9825 40.9133C73.988 41.4154 73.9373 41.7103 73.8303 41.798C73.7233 41.8857 73.5081 41.9948 73.1848 42.1251C72.876 42.2536 72.6599 42.3554 72.5365 42.4304C72.0554 42.7142 71.7712 43.0909 71.6838 43.5606C71.6899 43.7225 71.6678 43.8954 71.6175 44.0793C71.6184 44.3158 71.6144 44.4568 71.6055 44.5023C71.6111 44.5459 71.6223 44.6332 71.6392 44.7641C71.6766 45.0551 71.6686 45.3371 71.615 45.6102C71.607 45.8922 71.6423 46.3386 71.721 46.9496C71.8123 47.5441 71.8521 47.9679 71.8403 48.2208C71.843 48.4718 71.8371 48.5983 71.8226 48.6001C71.8465 48.671 71.8603 48.721 71.8641 48.7501L71.8809 48.881C71.8523 49.003 71.7366 49.1953 71.5338 49.458L71.2093 49.522C70.8748 49.5651 70.6901 49.5667 70.6554 49.5268C70.5024 49.4873 70.3821 49.4141 70.2944 49.3071C70.2052 49.3038 70.1541 49.2512 70.141 49.1494C70.0063 49.1372 69.9151 49.0602 69.8672 48.9185C69.6848 48.7645 69.5898 48.6585 69.5823 48.6003C69.3511 48.0681 69.2311 47.5956 69.2223 47.1826L69.079 46.0698C69.0968 45.9788 69.1048 45.926 69.1029 45.9115L69.0776 45.7151C69.1537 45.6166 69.1607 45.5565 69.0988 45.5349L69.0763 45.3603C69.089 45.3439 69.0897 45.2921 69.0785 45.2048C69.0818 45.1156 69.0767 44.961 69.0631 44.741C69.0679 44.5481 68.9345 43.9146 68.6631 42.8405C68.5974 42.7898 68.4572 42.5047 68.2424 41.9852C68.2312 41.8979 68.189 41.7999 68.1158 41.691L68.0905 41.4946C68.0099 41.3275 67.9477 41.2468 67.9041 41.2524C67.8586 41.2435 67.8349 41.2318 67.833 41.2172ZM80.0312 40.6224C80.0613 40.3967 80.0184 40.1213 79.9026 39.7961C79.7895 39.7219 79.6457 39.696 79.4711 39.7185C79.2529 39.7466 79.0828 39.9756 78.9607 40.4053C78.7729 40.7844 78.648 41.1924 78.5859 41.6292L78.5641 41.632C78.4828 42.2636 78.4449 42.6012 78.4505 42.6448C78.6908 42.6731 78.8836 42.6778 79.0291 42.6591C79.1727 42.6258 79.3297 42.5242 79.5 42.3544C79.7934 41.9913 79.9704 41.414 80.0312 40.6224ZM80.3703 43.7729L79.5714 43.9423C79.1205 44.0004 78.7585 44.0026 78.4854 43.9491L78.6042 44.3552C78.8034 45.557 79.24 46.3067 79.9142 46.6043C80.0981 46.6546 80.2483 46.6722 80.3647 46.6572C80.481 46.6422 80.6263 46.5644 80.8004 46.4237C80.8511 46.358 80.8917 46.2714 80.9222 46.164C80.9199 46.0312 80.9852 45.9636 81.118 45.9613C81.617 45.1281 82.0295 44.7718 82.3556 44.8925C82.6873 45.0568 82.8606 45.1972 82.8756 45.3135C82.8831 45.3717 82.8552 45.4419 82.7918 45.524L82.8087 45.6549C82.8274 45.8003 82.7666 46.0744 82.6262 46.4769C82.5003 46.8776 82.3524 47.222 82.1825 47.51C82.1087 47.7414 81.9975 47.911 81.8487 48.0188C81.4207 48.3697 80.9411 48.5498 80.4099 48.559C80.2917 48.5595 80.2079 48.5407 80.1587 48.5027C80.0386 48.4885 79.9503 48.4925 79.894 48.5146L79.7167 48.5152C79.5857 48.5321 79.4729 48.517 79.3781 48.4701C79.2214 48.4015 79.114 48.371 79.0558 48.3785C78.6588 48.2817 78.412 48.2026 78.3154 48.1411C78.2333 48.0777 78.1613 48.0353 78.0994 48.0137C78.0374 47.9921 77.8796 47.8571 77.6258 47.6088C77.4161 47.4732 77.2938 47.3854 77.2591 47.3455C77.155 47.2258 77.0628 47.1416 76.9826 47.0928C76.9169 47.0421 76.8637 46.9158 76.8229 46.714C76.7554 46.6488 76.7141 46.558 76.6991 46.4416L76.5893 46.2783C76.5762 46.1765 76.5223 46.1021 76.4275 46.0552C76.329 45.9791 76.2713 45.8756 76.2545 45.7447L76.232 45.5702C76.17 45.5486 76.1443 45.4631 76.1546 45.3139L76.0816 44.7466L76.0345 44.5531L76.0148 44.4003C75.9927 44.344 75.9914 44.2185 76.0107 44.0238L75.9636 43.8302C75.9762 43.8138 75.9831 43.6946 75.9841 43.4726C76.0029 43.1597 76.044 42.9621 76.1074 42.88L76.0821 42.6837C76.091 42.6381 76.0908 42.579 76.0814 42.5063C76.0721 42.4336 76.0763 42.3517 76.0942 42.2607C76.1266 42.1678 76.2008 41.8255 76.3168 41.2338L76.5676 40.4252C76.6413 40.1938 76.7704 39.9332 76.9549 39.6433C76.9601 39.5687 77.0014 39.4303 77.0789 39.228L77.3288 38.9297C77.3993 38.7875 77.518 38.6761 77.6851 38.5954C77.8756 38.4674 78.0218 38.3968 78.1236 38.3837L78.7233 38.2177C78.7979 38.2229 78.8498 38.2236 78.8789 38.2199L79.1625 38.1834C79.4863 38.1712 79.7566 38.203 79.9733 38.2786C80.4266 38.3533 80.7682 38.4794 80.998 38.6568C81.5145 39.1079 81.8028 39.5662 81.8627 40.0316C81.9227 40.4971 81.9014 40.9065 81.7991 41.2598C81.5422 42.1358 81.3478 42.6932 81.2159 42.932C81.0158 43.4458 80.734 43.7261 80.3703 43.7729ZM86.6927 42.9365C86.6074 44.4559 86.5886 45.2864 86.6365 45.4281C86.6824 45.5553 86.7364 45.6297 86.7983 45.6513C86.8748 45.671 86.9475 45.6617 87.0165 45.6232C87.2779 45.4712 87.4452 45.2205 87.5185 44.8709L87.9192 44.0208C87.9446 43.9879 87.9688 43.8887 87.9918 43.7231C88.0819 43.5044 88.1547 43.2658 88.2102 43.0073C88.3242 42.8595 88.3972 42.6801 88.4292 42.4689C88.5804 42.0354 88.6605 41.7959 88.6694 41.7504C88.7328 41.6683 88.7511 41.4663 88.7245 41.1444C88.7105 40.8061 88.6943 40.6233 88.676 40.5961C88.5696 40.3436 88.4962 40.1756 88.4559 40.0921C88.3775 40.0578 88.2037 40.0284 87.9343 40.004C87.6777 39.9631 87.5313 39.9745 87.4951 40.0383C87.466 40.0421 87.4055 40.146 87.3134 40.3501C87.236 40.5523 87.1669 40.82 87.1063 41.1531C86.9913 41.5228 86.9274 41.7159 86.9147 41.7323L86.6927 42.9365ZM90.8268 38.5224L90.9412 39.9273C90.9487 39.9855 90.9545 40.0882 90.9587 40.2356L91.1856 41.8256L91.4823 43.0961C91.501 43.2416 91.5482 43.4352 91.6236 43.6768C91.6991 43.9185 91.7397 44.0612 91.7453 44.1048C91.9136 44.8373 92.0526 45.2852 92.1623 45.4485C92.2983 45.8155 92.3675 46.0654 92.3698 46.1982C92.3721 46.331 92.3108 46.4867 92.186 46.6655C91.6012 46.9478 91.2223 47.0484 91.0492 46.9672C90.8563 46.9624 90.6632 46.8985 90.47 46.7756C90.2767 46.6526 90.1453 46.5512 90.0759 46.4714C90.0595 46.4587 89.9448 46.1999 89.7319 45.695C89.73 45.6804 89.6876 45.5232 89.6046 45.2234C89.5169 45.1164 89.4745 44.9592 89.4774 44.7518C89.2863 45.22 89.1926 45.4687 89.1963 45.4978C89.1982 45.5123 89.1937 45.5351 89.1829 45.566C89.1703 45.5825 89.1541 45.6289 89.1343 45.7054C89.1127 45.7673 89.055 45.8931 88.9611 46.0826C88.916 46.1919 88.8493 46.3632 88.7611 46.5964C88.4916 47.0303 88.0514 47.2866 87.4405 47.3653C86.7422 47.4552 86.1353 47.3929 85.6197 47.1783C85.5906 47.1821 85.5669 47.1703 85.5486 47.1431C85.4684 47.0943 85.3354 47.0375 85.1496 46.9727C84.9089 46.8262 84.6868 46.5369 84.4832 46.1047C84.4668 46.092 84.453 46.042 84.4418 45.9548L84.3975 45.783C84.3694 45.5648 84.337 45.4285 84.3004 45.3741C84.2705 45.1413 84.2915 44.6728 84.3634 43.9685L84.844 41.8437C84.8253 41.6982 84.8598 41.4498 84.9476 41.0984C85.0656 40.5213 85.1832 40.1142 85.3006 39.8773C85.2818 39.7318 85.4443 39.3856 85.7879 38.8385C85.8274 38.6856 85.9316 38.5761 86.1005 38.5099C86.5946 38.328 87.0383 38.2709 87.4315 38.3385C87.5042 38.3292 87.5788 38.3343 87.6553 38.3541C87.7463 38.3719 87.8446 38.3888 87.9502 38.4048C88.0558 38.4208 88.2334 38.4793 88.483 38.5802C88.5651 38.6436 88.6516 38.6842 88.7427 38.702C88.7421 37.0902 88.7351 36.1743 88.7215 35.9542C88.7244 35.7468 88.7675 35.3346 88.8507 34.7176L88.8508 34.03C88.904 33.6386 89.0009 33.3008 89.1418 33.0165C89.1395 32.8837 89.2118 32.7561 89.3587 32.6337C89.5361 32.4038 89.8718 32.4271 90.3658 32.7036C90.3987 32.729 90.5408 32.7994 90.7923 32.9149C90.9744 32.9506 91.0928 33.0093 91.1477 33.0909C91.2377 33.3307 91.286 33.5907 91.2925 33.8708C91.3356 34.2054 91.339 34.6338 91.3027 35.156C91.2665 35.6783 91.2108 36.1069 91.1356 36.4419C91.0956 36.9351 90.9927 37.6286 90.8268 38.5224ZM93.8205 44.8357C93.8454 44.6847 93.9349 44.5179 94.0888 44.3354C94.2554 44.1365 94.4333 44.0248 94.6224 44.0005C94.8115 43.9761 94.9751 43.9255 95.113 43.8486C95.251 43.7717 95.3782 43.7257 95.4945 43.7107C95.6255 43.6939 95.8265 43.7049 96.0977 43.744C96.3816 43.7666 96.5681 43.7795 96.6573 43.7828C96.761 43.7842 96.8429 43.7885 96.9029 43.7955C96.9775 43.8007 97.0495 43.8432 97.119 43.923C97.2029 44.0009 97.2533 44.1053 97.2702 44.2362C97.1775 45.239 96.908 45.9021 96.4617 46.2258L95.8211 46.4192C95.632 46.4435 95.408 46.3689 95.149 46.1952C94.6779 46.2115 94.4311 46.1324 94.4086 45.9578C94.4049 45.9287 94.3108 45.8299 94.1265 45.6614C93.9421 45.4929 93.8424 45.3505 93.8275 45.2341C93.8125 45.1177 93.8102 44.985 93.8205 44.8357ZM95.6944 29.9324L95.7088 31.5941C95.7461 32.3435 95.7868 33.7505 95.8309 35.8151C95.8749 37.8797 95.9447 39.283 96.0403 40.0248C96.1339 40.7522 96.2384 41.2193 96.3538 41.4263C96.2294 41.7233 96.0435 41.8877 95.7962 41.9195C95.6653 41.9364 95.5544 41.9359 95.4633 41.918C95.3723 41.9002 95.3122 41.8931 95.2831 41.8969L95.1959 41.9081L95.1058 41.8975C94.7038 41.4169 94.4547 40.9758 94.3586 40.5741C94.0345 40.0095 93.8476 39.6491 93.7979 39.4929C93.7609 39.3202 93.7168 39.2076 93.6657 39.155C93.5434 38.5497 93.4794 38.2252 93.4738 38.1815L93.3558 37.2651C93.3672 36.8939 93.3475 36.512 93.297 36.1192L93.2548 35.7919C93.2174 35.501 93.2212 35.0717 93.2664 34.5039C93.3097 33.9216 93.308 33.4486 93.2611 33.085C93.2124 32.7067 93.2653 32.2563 93.4198 31.7336C93.5889 31.2091 93.6967 30.8403 93.7432 30.6273C93.8042 30.4124 93.8437 30.2594 93.8616 30.1684C93.8794 30.0774 93.9055 29.9927 93.9397 29.9143C93.9975 29.7886 94.0845 29.7182 94.2009 29.7032C94.4079 29.5878 94.555 29.5245 94.6423 29.5133C95.2969 29.429 95.6476 29.5687 95.6944 29.9324Z" fill="#242424"/>
</svg>
