<svg width="507" height="23" viewBox="0 0 507 23" fill="none" xmlns="http://www.w3.org/2000/svg">
<path d="M3.00034 14.8375C17.4674 16.6914 15.0883 16.6457 35.0828 17.0857C74.6836 17.9572 114.487 17.6566 153.981 14.3523C161.586 13.7159 169.183 12.8596 176.714 11.6188C180.066 11.0664 183.392 10.2122 186.561 8.98436C187.746 8.52479 189.675 7.90397 189.568 6.63683C189.136 1.54345 167.912 3.24617 166.923 3.37652C163.546 3.82185 159.794 3.92999 157.023 5.91169C155.766 6.81091 155.646 9.63978 156.898 10.5471C160.749 13.3395 165.599 14.6453 170.275 15.5198C191.442 19.4787 224.318 19.821 244.398 19.6443C330.925 18.883 417.563 10.3355 503.891 4.82629" stroke="#090909" stroke-width="6" stroke-linecap="round"/>
</svg>
